<svg width="182" height="30" viewBox="0 0 182 30" fill="none" xmlns="http://www.w3.org/2000/svg">
<path d="M9.1282 14.5725H14.8361C16.4251 14.5725 17.6934 13.2643 17.6934 11.6686V6.22717C17.6934 4.67865 16.387 3.51522 14.8361 3.25665C13.8544 3.09334 12.8358 3.01904 11.859 3.02364C10.8819 3.02818 9.94936 3.11148 9.1282 3.25665C6.71011 3.68401 6.27108 4.57811 6.27108 6.22717V8.40512H11.9855V9.13103H6.27108H4.12654C2.46558 9.13103 1.01128 10.1292 0.556638 12.0283C0.0320132 14.2049 0.00848197 15.5631 0.556638 17.836C0.962857 19.5276 1.93284 20.7332 3.59367 20.7332H5.55853V18.1223C5.55853 16.2361 7.1902 14.5725 9.1282 14.5725ZM8.76862 6.95312C8.17631 6.95312 7.69626 6.46773 7.69626 5.86745C7.69626 5.26515 8.17631 4.77526 8.76862 4.77526C9.35897 4.77526 9.8408 5.26515 9.8408 5.86745C9.8408 6.46778 9.35901 6.95312 8.76862 6.95312ZM23.408 12.0283C22.9973 10.375 22.2135 9.13103 20.5505 9.13103H18.406V11.6686C18.406 13.636 16.7381 15.2916 14.8361 15.2916H9.1282C7.56497 15.2916 6.27108 16.6298 6.27108 18.1957V23.6369C6.27108 25.1855 7.61761 26.0967 9.1282 26.5405C10.9371 27.0727 12.6715 27.169 14.8361 26.5405C16.2746 26.1244 17.6934 25.2859 17.6934 23.6369V21.4591H11.9855V20.7332H17.6934H20.5505C22.2113 20.7332 22.8304 19.5746 23.408 17.8359C24.0044 16.046 23.9789 14.3245 23.408 12.0283ZM15.1959 22.9109C15.7884 22.9109 16.2681 23.3964 16.2681 23.9964C16.2681 24.5987 15.7884 25.0888 15.1959 25.0888C14.6055 25.0888 14.1235 24.5987 14.1235 23.9964C14.1235 23.3964 14.6055 22.9109 15.1959 22.9109Z" fill="#1C2026"/>
<path d="M48 15V29H76V1H48V15ZM70.5645 13.8847C71.2762 14.062 71.8175 14.3782 72.3157 14.8938C72.5735 15.1692 72.9562 15.6708 72.9865 15.7922C72.9958 15.8272 71.7778 16.6438 71.0405 17.1023C71.0137 17.1198 70.9063 17.0043 70.7873 16.827C70.4257 16.302 70.0488 16.0757 69.4713 16.036C68.622 15.9777 68.076 16.4222 68.0807 17.1642C68.0729 17.3466 68.114 17.5279 68.1997 17.6892C68.3863 18.0753 68.734 18.3075 69.8213 18.7777C71.8268 19.641 72.6843 20.2092 73.2175 21.0177C73.8125 21.9195 73.9467 23.3603 73.5418 24.4313C73.0985 25.5957 71.996 26.3867 70.4443 26.648C69.9648 26.7332 68.8273 26.7203 68.3117 26.627C67.187 26.4263 66.1207 25.871 65.4627 25.1418C65.2048 24.8583 64.702 24.1152 64.7335 24.0627C64.7463 24.044 64.8618 23.9728 64.9902 23.8982C65.1162 23.827 65.5863 23.5552 66.0308 23.2973L66.8358 22.8307L67.005 23.0803C67.2407 23.4397 67.7552 23.9332 68.0667 24.0977C68.9603 24.569 70.1865 24.5025 70.7908 23.96C70.9124 23.8576 71.0086 23.7285 71.0719 23.5828C71.1353 23.4371 71.164 23.2787 71.156 23.12C71.156 22.7957 71.1152 22.6533 70.946 22.4083C70.729 22.098 70.2845 21.8367 69.0222 21.2883C67.5778 20.6665 66.956 20.2803 66.3867 19.6667C66.0313 19.2617 65.7689 18.7838 65.6178 18.2667C65.5117 17.8712 65.4848 16.8795 65.5688 16.4805C65.8663 15.084 66.9198 14.1122 68.44 13.8228C68.9335 13.7295 70.0803 13.7645 70.5645 13.8847ZM63.9915 15.0537L64.0008 16.2005H60.355V26.5558H57.7767V16.2005H54.1343V15.0758C54.1343 14.4528 54.1472 13.9325 54.1647 13.9208C54.1787 13.9022 56.3965 13.8928 59.0845 13.8975L63.9787 13.9115L63.9915 15.0537Z" fill="#1C2026"/>
<mask id="mask0_6316_1518" style="mask-type:alpha" maskUnits="userSpaceOnUse" x="100" y="1" width="28" height="28">
<path d="M114 29C121.732 29 128 22.732 128 15C128 7.26801 121.732 1 114 1C106.268 1 100 7.26801 100 15C100 22.732 106.268 29 114 29Z" fill="black"/>
</mask>
<g mask="url(#mask0_6316_1518)">
<path d="M114 28.5335C121.474 28.5335 127.533 22.4744 127.533 15.0001C127.533 7.52588 121.474 1.4668 114 1.4668C106.526 1.4668 100.467 7.52588 100.467 15.0001C100.467 22.4744 106.526 28.5335 114 28.5335Z" fill="#1C2026" stroke="white" stroke-width="0.933333"/>
<path d="M123.256 25.503L110.755 9.3999H108.399V20.5952H110.284V11.7929L121.777 26.6425C122.296 26.2954 122.79 25.9145 123.256 25.503Z" fill="url(#paint0_linear_6316_1518)"/>
<path d="M119.755 9.3999H117.889V20.5999H119.755V9.3999Z" fill="url(#paint1_linear_6316_1518)"/>
</g>
<path d="M169.787 15.0053C169.787 15.7464 169.493 16.4571 168.969 16.9813C168.445 17.5054 167.735 17.8 166.994 17.8003C166.252 17.8003 165.542 17.5059 165.017 16.9817C164.493 16.4575 164.199 15.7466 164.199 15.0053C164.199 14.2643 164.493 13.5535 165.017 13.0294C165.541 12.5053 166.251 12.2107 166.993 12.2103C167.734 12.2103 168.445 12.5048 168.969 13.029C169.493 13.5531 169.787 14.2641 169.787 15.0053ZM173.098 1.64283C171.415 1.64283 169.214 2.84283 166.987 4.92033C164.762 2.85408 162.56 1.66783 160.879 1.66783C160.366 1.66783 159.9 1.78408 159.496 2.01533C157.778 3.00658 157.393 6.09533 158.28 9.97158C154.475 11.1466 152 13.0253 152 15.0053C152 16.9928 154.488 18.8766 158.304 20.0428C157.424 23.9341 157.816 27.0278 159.539 28.0178C159.939 28.2516 160.401 28.3616 160.916 28.3616C162.597 28.3616 164.8 27.1616 167.026 25.0816C169.251 27.1491 171.454 28.3353 173.135 28.3353C173.648 28.3353 174.114 28.2228 174.517 27.9916C176.235 27.0016 176.621 23.9128 175.734 20.0353C179.525 18.8703 182 16.9878 182 15.0053C182 13.0178 179.513 11.1341 175.696 9.96533C176.576 6.07783 176.184 2.98158 174.461 1.99033C174.045 1.75616 173.575 1.63627 173.098 1.64283ZM173.091 3.00533V3.01283C173.372 3.01283 173.599 3.06783 173.789 3.17158C174.621 3.64908 174.982 5.46533 174.701 7.80158C174.634 8.37658 174.524 8.98283 174.389 9.60158C173.111 9.29231 171.813 9.06931 170.505 8.93408C169.726 7.8591 168.876 6.83725 167.961 5.87533C169.951 4.02533 171.82 3.01033 173.093 3.00658L173.091 3.00533ZM160.879 3.03033C162.144 3.03033 164.021 4.04033 166.016 5.88033C165.159 6.78033 164.304 7.80158 163.491 8.93283C162.18 9.06648 160.88 9.29119 159.6 9.60533C159.466 9.01909 159.36 8.42674 159.283 7.83033C158.995 5.49533 159.35 3.68033 160.175 3.19658C160.412 3.08408 160.675 3.03658 160.879 3.03033ZM166.981 6.84283C167.55 7.42783 168.119 8.08283 168.681 8.79783C168.131 8.77283 167.569 8.75533 167 8.75533C166.425 8.75533 165.856 8.76783 165.3 8.79783C165.85 8.08283 166.419 7.42908 166.981 6.84283ZM167 10.1253C167.925 10.1253 168.846 10.1678 169.752 10.2416C170.26 10.9691 170.755 11.7453 171.231 12.5666C171.696 13.3666 172.119 14.1791 172.504 14.9991C172.119 15.8178 171.696 16.6366 171.238 17.4366C170.763 18.2616 170.271 19.0466 169.763 19.7741C167.928 19.9346 166.083 19.9367 164.248 19.7803C163.723 19.0261 163.229 18.2504 162.769 17.4553C162.304 16.6553 161.881 15.8428 161.496 15.0228C161.883 14.1906 162.305 13.3756 162.762 12.5803C163.237 11.7553 163.729 10.9728 164.237 10.2453C165.156 10.1642 166.078 10.1233 167 10.1228V10.1253ZM162.456 10.4428C162.156 10.9141 161.856 11.3966 161.576 11.8928C161.295 12.3803 161.033 12.8703 160.783 13.3603C160.451 12.5403 160.17 11.7228 159.937 10.9266C160.737 10.7391 161.581 10.5716 162.456 10.4428ZM171.531 10.4428C172.4 10.5716 173.238 10.7303 174.039 10.9266C173.814 11.7166 173.533 12.5291 173.214 13.3428C172.704 12.3478 172.143 11.3799 171.533 10.4428H171.531ZM175.36 11.2866C175.965 11.4741 176.54 11.6828 177.079 11.9091C179.244 12.8341 180.644 14.0441 180.644 15.0041C180.638 15.9641 179.238 17.1791 177.073 18.0978C176.548 18.3228 175.972 18.5253 175.379 18.7141C175.003 17.4434 174.544 16.199 174.004 14.9891C174.566 13.7178 175.016 12.4766 175.36 11.2841V11.2866ZM158.616 11.2916C158.964 12.4916 159.423 13.7378 159.991 15.0166C159.455 16.2192 159.001 17.4571 158.634 18.7216C158.029 18.5341 157.454 18.3241 156.921 18.0966C154.756 17.1753 153.356 15.9641 153.356 15.0041C153.356 14.0441 154.756 12.8266 156.921 11.9091C157.446 11.6841 158.021 11.4816 158.616 11.2916ZM173.214 16.6416C173.545 17.4628 173.826 18.2816 174.059 19.0766C173.259 19.2728 172.414 19.4391 171.539 19.5641C172.148 18.6198 172.706 17.6443 173.214 16.6416ZM160.783 16.6666C161.033 17.1566 161.295 17.6453 161.582 18.1353C161.87 18.6228 162.164 19.1003 162.464 19.5641C161.621 19.4422 160.784 19.2811 159.956 19.0816C160.181 18.2941 160.464 17.4791 160.781 16.6653L160.783 16.6666ZM174.4 20.4003C174.54 21.0166 174.65 21.6103 174.717 22.1791C175.005 24.5141 174.65 26.3291 173.825 26.8141C173.641 26.9266 173.402 26.9741 173.121 26.9741C171.856 26.9741 169.979 25.9653 167.984 24.1241C168.841 23.2241 169.696 22.2041 170.509 21.0741C171.893 20.9266 173.201 20.7003 174.4 20.4003ZM159.613 20.4128C160.813 20.7053 162.12 20.9316 163.496 21.0778C164.321 22.2091 165.178 23.2366 166.04 24.1353C164.046 25.9891 162.175 27.0041 160.903 27.0041C160.662 27.006 160.425 26.9494 160.211 26.8391C159.379 26.3641 159.018 24.5466 159.299 22.2103C159.366 21.6353 159.478 21.0303 159.613 20.4128ZM165.312 21.2128C165.862 21.2378 166.425 21.2553 166.994 21.2553C167.569 21.2553 168.137 21.2428 168.694 21.2128C168.144 21.9278 167.575 22.5816 167.013 23.1691C166.444 22.5816 165.875 21.9278 165.312 21.2128Z" fill="#1C2026"/>
<defs>
<linearGradient id="paint0_linear_6316_1518" x1="116.955" y1="19.1221" x2="122.477" y2="25.9666" gradientUnits="userSpaceOnUse">
<stop stop-color="white"/>
<stop offset="1" stop-color="white" stop-opacity="0"/>
</linearGradient>
<linearGradient id="paint1_linear_6316_1518" x1="118.822" y1="9.3999" x2="118.791" y2="17.6249" gradientUnits="userSpaceOnUse">
<stop stop-color="white"/>
<stop offset="1" stop-color="white" stop-opacity="0"/>
</linearGradient>
</defs>
</svg>
