<svg width="398" height="239" viewBox="0 0 398 239" fill="none" xmlns="http://www.w3.org/2000/svg">
<path d="M11 77H45V211H11V77Z" fill="url(#paint0_linear_6344_950)"/>
<rect x="45" y="133" width="34" height="78" fill="#1D2127"/>
<path d="M56.708 124.144C56.156 124.144 55.66 124.044 55.22 123.844C54.788 123.636 54.44 123.336 54.176 122.944C53.912 122.552 53.768 122.072 53.744 121.504H54.776C54.792 121.984 54.968 122.392 55.304 122.728C55.64 123.056 56.108 123.22 56.708 123.22C57.292 123.22 57.744 123.072 58.064 122.776C58.384 122.472 58.544 122.06 58.544 121.54C58.544 121.18 58.452 120.884 58.268 120.652C58.084 120.412 57.836 120.236 57.524 120.124C57.22 120.004 56.88 119.944 56.504 119.944H55.772V119.032H56.408C56.952 119.032 57.384 118.916 57.704 118.684C58.032 118.452 58.196 118.112 58.196 117.664C58.196 117.288 58.064 116.98 57.8 116.74C57.544 116.5 57.176 116.38 56.696 116.38C56.232 116.38 55.856 116.512 55.568 116.776C55.28 117.032 55.116 117.368 55.076 117.784H54.068C54.084 117.328 54.204 116.928 54.428 116.584C54.652 116.232 54.956 115.956 55.34 115.756C55.732 115.556 56.184 115.456 56.696 115.456C57.248 115.456 57.708 115.552 58.076 115.744C58.452 115.936 58.736 116.196 58.928 116.524C59.12 116.844 59.216 117.2 59.216 117.592C59.216 118.008 59.088 118.376 58.832 118.696C58.576 119.008 58.272 119.228 57.92 119.356V119.428C58.392 119.572 58.784 119.816 59.096 120.16C59.408 120.504 59.564 120.964 59.564 121.54C59.564 122.028 59.448 122.468 59.216 122.86C58.992 123.252 58.664 123.564 58.232 123.796C57.808 124.028 57.3 124.144 56.708 124.144ZM64.8273 124V122.056H60.8073V121.276L64.6353 115.6H65.8353V121.144H67.0353V122.056H65.8353V124H64.8273ZM61.9353 121.144H64.8753V116.776L61.9353 121.144ZM70.9906 124.024C70.7426 124.024 70.5306 123.94 70.3546 123.772C70.1786 123.604 70.0906 123.396 70.0906 123.148C70.0906 122.908 70.1786 122.704 70.3546 122.536C70.5306 122.368 70.7426 122.284 70.9906 122.284C71.2386 122.284 71.4506 122.368 71.6266 122.536C71.8026 122.704 71.8906 122.908 71.8906 123.148C71.8906 123.396 71.8026 123.604 71.6266 123.772C71.4506 123.94 71.2386 124.024 70.9906 124.024ZM79.2179 124V122.056H75.1979V121.276L79.0259 115.6H80.2259V121.144H81.4259V122.056H80.2259V124H79.2179ZM76.3259 121.144H79.2659V116.776L76.3259 121.144ZM83.7733 119.176C83.2613 119.176 82.8373 119.008 82.5013 118.672C82.1733 118.336 82.0093 117.884 82.0093 117.316C82.0093 116.748 82.1733 116.296 82.5013 115.96C82.8373 115.624 83.2613 115.456 83.7733 115.456C84.2853 115.456 84.7053 115.624 85.0333 115.96C85.3693 116.296 85.5373 116.748 85.5373 117.316C85.5373 117.884 85.3693 118.336 85.0333 118.672C84.7053 119.008 84.2853 119.176 83.7733 119.176ZM83.7733 118.456C84.0293 118.456 84.2533 118.36 84.4453 118.168C84.6453 117.968 84.7453 117.684 84.7453 117.316C84.7453 116.948 84.6453 116.668 84.4453 116.476C84.2533 116.276 84.0293 116.176 83.7733 116.176C83.5173 116.176 83.2893 116.276 83.0893 116.476C82.8973 116.668 82.8013 116.948 82.8013 117.316C82.8013 117.684 82.8973 117.968 83.0893 118.168C83.2893 118.36 83.5173 118.456 83.7733 118.456ZM82.6213 123.22L82.0453 122.656L88.1413 116.38L88.7173 116.944L82.6213 123.22ZM86.9893 124.144C86.4773 124.144 86.0533 123.976 85.7173 123.64C85.3893 123.304 85.2253 122.852 85.2253 122.284C85.2253 121.716 85.3893 121.264 85.7173 120.928C86.0533 120.592 86.4773 120.424 86.9893 120.424C87.5013 120.424 87.9213 120.592 88.2493 120.928C88.5853 121.264 88.7533 121.716 88.7533 122.284C88.7533 122.852 88.5853 123.304 88.2493 123.64C87.9213 123.976 87.5013 124.144 86.9893 124.144ZM86.9893 123.424C87.2453 123.424 87.4693 123.328 87.6613 123.136C87.8613 122.936 87.9613 122.652 87.9613 122.284C87.9613 121.916 87.8613 121.636 87.6613 121.444C87.4693 121.244 87.2453 121.144 86.9893 121.144C86.7333 121.144 86.5053 121.244 86.3053 121.444C86.1133 121.636 86.0173 121.916 86.0173 122.284C86.0173 122.652 86.1133 122.936 86.3053 123.136C86.5053 123.328 86.7333 123.424 86.9893 123.424Z" fill="#4D4D4D"/>
<path d="M107.623 12.144C107.063 12.144 106.571 12.04 106.147 11.832C105.731 11.616 105.403 11.324 105.163 10.956C104.923 10.588 104.803 10.168 104.803 9.696C104.803 9.168 104.943 8.72 105.223 8.352C105.503 7.984 105.827 7.728 106.195 7.584V7.524C105.843 7.356 105.559 7.116 105.343 6.804C105.135 6.484 105.031 6.112 105.031 5.688C105.031 5.28 105.135 4.908 105.343 4.572C105.559 4.228 105.863 3.956 106.255 3.756C106.647 3.556 107.103 3.456 107.623 3.456C108.135 3.456 108.583 3.556 108.967 3.756C109.359 3.956 109.663 4.228 109.879 4.572C110.103 4.908 110.215 5.28 110.215 5.688C110.215 6.112 110.107 6.484 109.891 6.804C109.683 7.116 109.403 7.356 109.051 7.524V7.584C109.419 7.728 109.743 7.984 110.023 8.352C110.303 8.72 110.443 9.168 110.443 9.696C110.443 10.168 110.323 10.588 110.083 10.956C109.843 11.324 109.511 11.616 109.087 11.832C108.671 12.04 108.183 12.144 107.623 12.144ZM107.623 7.152C108.119 7.152 108.507 7.024 108.787 6.768C109.075 6.504 109.219 6.164 109.219 5.748C109.219 5.34 109.075 5.008 108.787 4.752C108.507 4.488 108.119 4.356 107.623 4.356C107.127 4.356 106.735 4.488 106.447 4.752C106.167 5.008 106.027 5.34 106.027 5.748C106.027 6.164 106.167 6.504 106.447 6.768C106.735 7.024 107.127 7.152 107.623 7.152ZM107.623 11.232C108.159 11.232 108.591 11.096 108.919 10.824C109.255 10.544 109.423 10.14 109.423 9.612C109.423 9.092 109.255 8.696 108.919 8.424C108.591 8.144 108.159 8.004 107.623 8.004C107.087 8.004 106.651 8.144 106.315 8.424C105.987 8.696 105.823 9.092 105.823 9.612C105.823 10.14 105.987 10.544 106.315 10.824C106.651 11.096 107.087 11.232 107.623 11.232ZM114.927 12.144C114.375 12.144 113.879 12.044 113.439 11.844C113.007 11.636 112.659 11.336 112.395 10.944C112.131 10.552 111.987 10.072 111.963 9.504H112.995C113.011 9.984 113.187 10.392 113.523 10.728C113.859 11.056 114.327 11.22 114.927 11.22C115.511 11.22 115.963 11.072 116.283 10.776C116.603 10.472 116.763 10.06 116.763 9.54C116.763 9.18 116.671 8.884 116.487 8.652C116.303 8.412 116.055 8.236 115.743 8.124C115.439 8.004 115.099 7.944 114.723 7.944H113.991V7.032H114.627C115.171 7.032 115.603 6.916 115.923 6.684C116.251 6.452 116.415 6.112 116.415 5.664C116.415 5.288 116.283 4.98 116.019 4.74C115.763 4.5 115.395 4.38 114.915 4.38C114.451 4.38 114.075 4.512 113.787 4.776C113.499 5.032 113.335 5.368 113.295 5.784H112.287C112.303 5.328 112.423 4.928 112.647 4.584C112.871 4.232 113.175 3.956 113.559 3.756C113.951 3.556 114.403 3.456 114.915 3.456C115.467 3.456 115.927 3.552 116.295 3.744C116.671 3.936 116.955 4.196 117.147 4.524C117.339 4.844 117.435 5.2 117.435 5.592C117.435 6.008 117.307 6.376 117.051 6.696C116.795 7.008 116.491 7.228 116.139 7.356V7.428C116.611 7.572 117.003 7.816 117.315 8.16C117.627 8.504 117.783 8.964 117.783 9.54C117.783 10.028 117.667 10.468 117.435 10.86C117.211 11.252 116.883 11.564 116.451 11.796C116.027 12.028 115.519 12.144 114.927 12.144ZM122.014 12.024C121.766 12.024 121.554 11.94 121.378 11.772C121.202 11.604 121.114 11.396 121.114 11.148C121.114 10.908 121.202 10.704 121.378 10.536C121.554 10.368 121.766 10.284 122.014 10.284C122.262 10.284 122.474 10.368 122.65 10.536C122.826 10.704 122.914 10.908 122.914 11.148C122.914 11.396 122.826 11.604 122.65 11.772C122.474 11.94 122.262 12.024 122.014 12.024ZM129.209 12.144C128.633 12.144 128.137 12.036 127.721 11.82C127.305 11.604 126.977 11.312 126.737 10.944C126.497 10.576 126.353 10.156 126.305 9.684H127.337C127.409 10.14 127.613 10.512 127.949 10.8C128.285 11.08 128.709 11.22 129.221 11.22C129.821 11.22 130.293 11.028 130.637 10.644C130.981 10.252 131.153 9.76 131.153 9.168C131.153 8.544 130.977 8.056 130.625 7.704C130.273 7.344 129.817 7.164 129.257 7.164C128.809 7.164 128.425 7.268 128.105 7.476C127.793 7.676 127.541 7.932 127.349 8.244H126.389L127.109 3.6H131.597V4.524H127.901L127.457 7.02H127.517C127.701 6.82 127.949 6.644 128.261 6.492C128.581 6.34 128.949 6.264 129.365 6.264C129.917 6.264 130.397 6.384 130.805 6.624C131.221 6.856 131.545 7.192 131.777 7.632C132.009 8.064 132.125 8.572 132.125 9.156C132.125 9.7 132.009 10.2 131.777 10.656C131.553 11.104 131.221 11.464 130.781 11.736C130.349 12.008 129.825 12.144 129.209 12.144ZM134.797 7.176C134.285 7.176 133.861 7.008 133.525 6.672C133.197 6.336 133.033 5.884 133.033 5.316C133.033 4.748 133.197 4.296 133.525 3.96C133.861 3.624 134.285 3.456 134.797 3.456C135.309 3.456 135.729 3.624 136.057 3.96C136.393 4.296 136.561 4.748 136.561 5.316C136.561 5.884 136.393 6.336 136.057 6.672C135.729 7.008 135.309 7.176 134.797 7.176ZM134.797 6.456C135.053 6.456 135.277 6.36 135.469 6.168C135.669 5.968 135.769 5.684 135.769 5.316C135.769 4.948 135.669 4.668 135.469 4.476C135.277 4.276 135.053 4.176 134.797 4.176C134.541 4.176 134.313 4.276 134.113 4.476C133.921 4.668 133.825 4.948 133.825 5.316C133.825 5.684 133.921 5.968 134.113 6.168C134.313 6.36 134.541 6.456 134.797 6.456ZM133.645 11.22L133.069 10.656L139.165 4.38L139.741 4.944L133.645 11.22ZM138.013 12.144C137.501 12.144 137.077 11.976 136.741 11.64C136.413 11.304 136.249 10.852 136.249 10.284C136.249 9.716 136.413 9.264 136.741 8.928C137.077 8.592 137.501 8.424 138.013 8.424C138.525 8.424 138.945 8.592 139.273 8.928C139.609 9.264 139.777 9.716 139.777 10.284C139.777 10.852 139.609 11.304 139.273 11.64C138.945 11.976 138.525 12.144 138.013 12.144ZM138.013 11.424C138.269 11.424 138.493 11.328 138.685 11.136C138.885 10.936 138.985 10.652 138.985 10.284C138.985 9.916 138.885 9.636 138.685 9.444C138.493 9.244 138.269 9.144 138.013 9.144C137.757 9.144 137.529 9.244 137.329 9.444C137.137 9.636 137.041 9.916 137.041 10.284C137.041 10.652 137.137 10.936 137.329 11.136C137.529 11.328 137.757 11.424 138.013 11.424Z" fill="#267BF1"/>
<path d="M159.768 45.144C159.032 45.144 158.432 44.968 157.968 44.616C157.512 44.256 157.172 43.776 156.948 43.176C156.732 42.568 156.624 41.884 156.624 41.124C156.624 40.204 156.752 39.396 157.008 38.7C157.264 37.996 157.632 37.448 158.112 37.056C158.6 36.656 159.184 36.456 159.864 36.456C160.4 36.456 160.856 36.56 161.232 36.768C161.616 36.968 161.916 37.244 162.132 37.596C162.356 37.94 162.488 38.328 162.528 38.76H161.58C161.5 38.336 161.308 38 161.004 37.752C160.7 37.496 160.32 37.368 159.864 37.368C159.464 37.368 159.096 37.496 158.76 37.752C158.432 38 158.16 38.388 157.944 38.916C157.736 39.436 157.616 40.1 157.584 40.908H157.644C157.828 40.564 158.112 40.264 158.496 40.008C158.88 39.752 159.344 39.624 159.888 39.624C160.392 39.624 160.844 39.74 161.244 39.972C161.644 40.204 161.96 40.524 162.192 40.932C162.432 41.34 162.552 41.804 162.552 42.324C162.552 42.836 162.436 43.308 162.204 43.74C161.98 44.164 161.656 44.504 161.232 44.76C160.816 45.016 160.328 45.144 159.768 45.144ZM159.696 44.232C160.248 44.232 160.692 44.056 161.028 43.704C161.364 43.352 161.532 42.912 161.532 42.384C161.532 41.848 161.364 41.408 161.028 41.064C160.692 40.712 160.248 40.536 159.696 40.536C159.328 40.536 159.004 40.616 158.724 40.776C158.452 40.936 158.236 41.156 158.076 41.436C157.924 41.716 157.848 42.032 157.848 42.384C157.848 42.736 157.924 43.052 158.076 43.332C158.236 43.612 158.452 43.832 158.724 43.992C159.004 44.152 159.328 44.232 159.696 44.232ZM166.651 45.144C166.139 45.144 165.683 45.044 165.283 44.844C164.891 44.636 164.575 44.36 164.335 44.016C164.103 43.664 163.967 43.272 163.927 42.84H164.899C164.971 43.264 165.159 43.604 165.463 43.86C165.775 44.108 166.171 44.232 166.651 44.232C167.283 44.232 167.799 43.948 168.199 43.38C168.599 42.804 168.827 41.908 168.883 40.692H168.811C168.595 41.068 168.319 41.376 167.983 41.616C167.647 41.856 167.175 41.976 166.567 41.976C166.063 41.976 165.611 41.86 165.211 41.628C164.811 41.396 164.491 41.076 164.251 40.668C164.019 40.26 163.903 39.796 163.903 39.276C163.903 38.764 164.015 38.296 164.239 37.872C164.471 37.44 164.795 37.096 165.211 36.84C165.635 36.584 166.127 36.456 166.687 36.456C167.743 36.456 168.531 36.816 169.051 37.536C169.571 38.256 169.831 39.236 169.831 40.476C169.831 41.396 169.707 42.208 169.459 42.912C169.211 43.608 168.851 44.156 168.379 44.556C167.907 44.948 167.331 45.144 166.651 45.144ZM166.759 41.064C167.319 41.064 167.767 40.888 168.103 40.536C168.439 40.184 168.607 39.744 168.607 39.216C168.607 38.688 168.439 38.248 168.103 37.896C167.767 37.544 167.319 37.368 166.759 37.368C166.199 37.368 165.751 37.544 165.415 37.896C165.087 38.248 164.923 38.688 164.923 39.216C164.923 39.752 165.087 40.196 165.415 40.548C165.751 40.892 166.199 41.064 166.759 41.064ZM173.991 45.024C173.743 45.024 173.531 44.94 173.355 44.772C173.179 44.604 173.091 44.396 173.091 44.148C173.091 43.908 173.179 43.704 173.355 43.536C173.531 43.368 173.743 43.284 173.991 43.284C174.239 43.284 174.451 43.368 174.627 43.536C174.803 43.704 174.891 43.908 174.891 44.148C174.891 44.396 174.803 44.604 174.627 44.772C174.451 44.94 174.239 45.024 173.991 45.024ZM181.294 45.144C180.742 45.144 180.246 45.044 179.806 44.844C179.374 44.636 179.026 44.336 178.762 43.944C178.498 43.552 178.354 43.072 178.33 42.504H179.362C179.378 42.984 179.554 43.392 179.89 43.728C180.226 44.056 180.694 44.22 181.294 44.22C181.878 44.22 182.33 44.072 182.65 43.776C182.97 43.472 183.13 43.06 183.13 42.54C183.13 42.18 183.038 41.884 182.854 41.652C182.67 41.412 182.422 41.236 182.11 41.124C181.806 41.004 181.466 40.944 181.09 40.944H180.358V40.032H180.994C181.538 40.032 181.97 39.916 182.29 39.684C182.618 39.452 182.782 39.112 182.782 38.664C182.782 38.288 182.65 37.98 182.386 37.74C182.13 37.5 181.762 37.38 181.282 37.38C180.818 37.38 180.442 37.512 180.154 37.776C179.866 38.032 179.702 38.368 179.662 38.784H178.654C178.67 38.328 178.79 37.928 179.014 37.584C179.238 37.232 179.542 36.956 179.926 36.756C180.318 36.556 180.77 36.456 181.282 36.456C181.834 36.456 182.294 36.552 182.662 36.744C183.038 36.936 183.322 37.196 183.514 37.524C183.706 37.844 183.802 38.2 183.802 38.592C183.802 39.008 183.674 39.376 183.418 39.696C183.162 40.008 182.858 40.228 182.506 40.356V40.428C182.978 40.572 183.37 40.816 183.682 41.16C183.994 41.504 184.15 41.964 184.15 42.54C184.15 43.028 184.034 43.468 183.802 43.86C183.578 44.252 183.25 44.564 182.818 44.796C182.394 45.028 181.886 45.144 181.294 45.144ZM186.773 40.176C186.261 40.176 185.837 40.008 185.501 39.672C185.173 39.336 185.009 38.884 185.009 38.316C185.009 37.748 185.173 37.296 185.501 36.96C185.837 36.624 186.261 36.456 186.773 36.456C187.285 36.456 187.705 36.624 188.033 36.96C188.369 37.296 188.537 37.748 188.537 38.316C188.537 38.884 188.369 39.336 188.033 39.672C187.705 40.008 187.285 40.176 186.773 40.176ZM186.773 39.456C187.029 39.456 187.253 39.36 187.445 39.168C187.645 38.968 187.745 38.684 187.745 38.316C187.745 37.948 187.645 37.668 187.445 37.476C187.253 37.276 187.029 37.176 186.773 37.176C186.517 37.176 186.289 37.276 186.089 37.476C185.897 37.668 185.801 37.948 185.801 38.316C185.801 38.684 185.897 38.968 186.089 39.168C186.289 39.36 186.517 39.456 186.773 39.456ZM185.621 44.22L185.045 43.656L191.141 37.38L191.717 37.944L185.621 44.22ZM189.989 45.144C189.477 45.144 189.053 44.976 188.717 44.64C188.389 44.304 188.225 43.852 188.225 43.284C188.225 42.716 188.389 42.264 188.717 41.928C189.053 41.592 189.477 41.424 189.989 41.424C190.501 41.424 190.921 41.592 191.249 41.928C191.585 42.264 191.753 42.716 191.753 43.284C191.753 43.852 191.585 44.304 191.249 44.64C190.921 44.976 190.501 45.144 189.989 45.144ZM189.989 44.424C190.245 44.424 190.469 44.328 190.661 44.136C190.861 43.936 190.961 43.652 190.961 43.284C190.961 42.916 190.861 42.636 190.661 42.444C190.469 42.244 190.245 42.144 189.989 42.144C189.733 42.144 189.505 42.244 189.305 42.444C189.113 42.636 189.017 42.916 189.017 43.284C189.017 43.652 189.113 43.936 189.305 44.136C189.505 44.328 189.733 44.424 189.989 44.424Z" fill="#4D4D4D"/>
<path d="M210.087 40L213.363 32.512H208.779V31.6H214.407V32.404L211.155 40H210.087ZM216.059 40V39.088H218.231V32.788L216.179 33.184V32.416L218.567 31.6H219.239V39.088H221.531V40H216.059ZM226.014 40.024C225.766 40.024 225.554 39.94 225.378 39.772C225.202 39.604 225.114 39.396 225.114 39.148C225.114 38.908 225.202 38.704 225.378 38.536C225.554 38.368 225.766 38.284 226.014 38.284C226.262 38.284 226.474 38.368 226.65 38.536C226.826 38.704 226.914 38.908 226.914 39.148C226.914 39.396 226.826 39.604 226.65 39.772C226.474 39.94 226.262 40.024 226.014 40.024ZM230.449 40V39.088H232.621V32.788L230.569 33.184V32.416L232.957 31.6H233.629V39.088H235.921V40H230.449ZM238.797 35.176C238.285 35.176 237.861 35.008 237.525 34.672C237.197 34.336 237.033 33.884 237.033 33.316C237.033 32.748 237.197 32.296 237.525 31.96C237.861 31.624 238.285 31.456 238.797 31.456C239.309 31.456 239.729 31.624 240.057 31.96C240.393 32.296 240.561 32.748 240.561 33.316C240.561 33.884 240.393 34.336 240.057 34.672C239.729 35.008 239.309 35.176 238.797 35.176ZM238.797 34.456C239.053 34.456 239.277 34.36 239.469 34.168C239.669 33.968 239.769 33.684 239.769 33.316C239.769 32.948 239.669 32.668 239.469 32.476C239.277 32.276 239.053 32.176 238.797 32.176C238.541 32.176 238.313 32.276 238.113 32.476C237.921 32.668 237.825 32.948 237.825 33.316C237.825 33.684 237.921 33.968 238.113 34.168C238.313 34.36 238.541 34.456 238.797 34.456ZM237.645 39.22L237.069 38.656L243.165 32.38L243.741 32.944L237.645 39.22ZM242.013 40.144C241.501 40.144 241.077 39.976 240.741 39.64C240.413 39.304 240.249 38.852 240.249 38.284C240.249 37.716 240.413 37.264 240.741 36.928C241.077 36.592 241.501 36.424 242.013 36.424C242.525 36.424 242.945 36.592 243.273 36.928C243.609 37.264 243.777 37.716 243.777 38.284C243.777 38.852 243.609 39.304 243.273 39.64C242.945 39.976 242.525 40.144 242.013 40.144ZM242.013 39.424C242.269 39.424 242.493 39.328 242.685 39.136C242.885 38.936 242.985 38.652 242.985 38.284C242.985 37.916 242.885 37.636 242.685 37.444C242.493 37.244 242.269 37.144 242.013 37.144C241.757 37.144 241.529 37.244 241.329 37.444C241.137 37.636 241.041 37.916 241.041 38.284C241.041 38.652 241.137 38.936 241.329 39.136C241.529 39.328 241.757 39.424 242.013 39.424Z" fill="#267BF1"/>
<path d="M35.095 236V227.6H37.891C38.531 227.6 39.055 227.716 39.463 227.948C39.871 228.18 40.171 228.488 40.363 228.872C40.555 229.256 40.651 229.68 40.651 230.144C40.651 230.608 40.555 231.032 40.363 231.416C40.171 231.8 39.871 232.108 39.463 232.34C39.055 232.572 38.531 232.688 37.891 232.688H36.103V236H35.095ZM36.103 231.764H37.867C38.459 231.764 38.899 231.616 39.187 231.32C39.475 231.016 39.619 230.624 39.619 230.144C39.619 229.664 39.475 229.272 39.187 228.968C38.899 228.664 38.459 228.512 37.867 228.512H36.103V231.764ZM45.8783 237.128C45.0063 237.128 44.2783 236.92 43.6943 236.504C43.1183 236.096 42.6863 235.532 42.3983 234.812C42.1103 234.092 41.9663 233.276 41.9663 232.364C41.9663 231.532 42.0583 230.816 42.2423 230.216C42.4343 229.616 42.6943 229.124 43.0223 228.74C43.3503 228.348 43.7183 228.06 44.1263 227.876C44.5343 227.692 44.9583 227.6 45.3983 227.6C46.2223 227.6 46.8743 227.808 47.3543 228.224C47.8343 228.64 48.0743 229.236 48.0743 230.012V234.716H47.3543L47.2583 234.032H47.2103C47.0903 234.256 46.9183 234.444 46.6943 234.596C46.4783 234.748 46.2023 234.824 45.8663 234.824C45.2663 234.824 44.7703 234.608 44.3783 234.176C43.9863 233.744 43.7903 233.136 43.7903 232.352C43.7903 231.568 43.9823 230.964 44.3663 230.54C44.7583 230.116 45.2583 229.904 45.8663 229.904C46.2023 229.904 46.4783 229.964 46.6943 230.084C46.9183 230.204 47.0903 230.364 47.2103 230.564V230.012C47.2103 229.516 47.0423 229.128 46.7063 228.848C46.3783 228.56 45.9423 228.416 45.3983 228.416C44.9743 228.416 44.5703 228.544 44.1863 228.8C43.8023 229.056 43.4863 229.472 43.2383 230.048C42.9983 230.624 42.8783 231.396 42.8783 232.364C42.8783 233.068 42.9863 233.72 43.2023 234.32C43.4183 234.92 43.7503 235.404 44.1983 235.772C44.6463 236.132 45.2063 236.312 45.8783 236.312H47.5583V237.128H45.8783ZM45.9383 234.068C46.3063 234.068 46.6103 233.932 46.8503 233.66C47.0903 233.38 47.2103 232.948 47.2103 232.364C47.2103 231.78 47.0903 231.352 46.8503 231.08C46.6103 230.8 46.3063 230.66 45.9383 230.66C45.5703 230.66 45.2663 230.8 45.0263 231.08C44.7863 231.352 44.6663 231.78 44.6663 232.364C44.6663 232.948 44.7863 233.38 45.0263 233.66C45.2663 233.932 45.5703 234.068 45.9383 234.068ZM49.4377 236V235.088H51.6097V228.788L49.5577 229.184V228.416L51.9457 227.6H52.6177V235.088H54.9097V236H49.4377Z" fill="#4D4D4D"/>
<path d="M114 24H148V211H114V24Z" fill="url(#paint1_linear_6344_950)"/>
<rect x="148" y="56" width="34" height="155" fill="#1D2127"/>
<path d="M116.605 236V227.6H119.185C119.833 227.6 120.365 227.708 120.781 227.924C121.205 228.14 121.521 228.436 121.729 228.812C121.937 229.18 122.041 229.6 122.041 230.072C122.041 230.624 121.897 231.112 121.609 231.536C121.329 231.952 120.897 232.244 120.313 232.412L122.137 236H120.937L119.245 232.556H119.185H117.613V236H116.605ZM117.613 231.632H119.149C119.789 231.632 120.257 231.488 120.553 231.2C120.857 230.904 121.009 230.528 121.009 230.072C121.009 229.592 120.861 229.212 120.565 228.932C120.277 228.652 119.801 228.512 119.137 228.512H117.613V231.632ZM123.848 236V227.6H129.092V228.512H124.856V231.308H128.732V232.22H124.856V235.088H129.092V236H123.848ZM133.672 236.144C132.992 236.144 132.404 235.964 131.908 235.604C131.42 235.244 131.044 234.74 130.78 234.092C130.524 233.444 130.396 232.68 130.396 231.8C130.396 230.928 130.524 230.168 130.78 229.52C131.044 228.864 131.42 228.356 131.908 227.996C132.404 227.636 132.992 227.456 133.672 227.456C134.536 227.456 135.232 227.696 135.76 228.176C136.288 228.648 136.596 229.28 136.684 230.072H135.568C135.488 229.6 135.288 229.204 134.968 228.884C134.648 228.564 134.216 228.404 133.672 228.404C132.976 228.404 132.428 228.708 132.028 229.316C131.628 229.916 131.428 230.744 131.428 231.8C131.428 232.864 131.628 233.696 132.028 234.296C132.428 234.896 132.976 235.196 133.672 235.196C134.24 235.196 134.676 235.044 134.98 234.74C135.292 234.436 135.488 234.044 135.568 233.564H136.684C136.556 234.364 136.236 234.996 135.724 235.46C135.22 235.916 134.536 236.144 133.672 236.144ZM137.603 236L140.231 227.6H141.395L144.011 236H142.907L142.295 233.912H139.319L138.707 236H137.603ZM140.783 229.016L139.571 233.072H142.043L140.831 229.016H140.783ZM145.446 236V227.6H146.454V235.088H150.714V236H145.446ZM152.642 236V227.6H153.65V235.088H157.91V236H152.642ZM163.269 237.128C162.397 237.128 161.669 236.92 161.085 236.504C160.509 236.096 160.077 235.532 159.789 234.812C159.501 234.092 159.357 233.276 159.357 232.364C159.357 231.532 159.449 230.816 159.633 230.216C159.825 229.616 160.085 229.124 160.413 228.74C160.741 228.348 161.109 228.06 161.517 227.876C161.925 227.692 162.349 227.6 162.789 227.6C163.613 227.6 164.265 227.808 164.745 228.224C165.225 228.64 165.465 229.236 165.465 230.012V234.716H164.745L164.649 234.032H164.601C164.481 234.256 164.309 234.444 164.085 234.596C163.869 234.748 163.593 234.824 163.257 234.824C162.657 234.824 162.161 234.608 161.769 234.176C161.377 233.744 161.181 233.136 161.181 232.352C161.181 231.568 161.373 230.964 161.757 230.54C162.149 230.116 162.649 229.904 163.257 229.904C163.593 229.904 163.869 229.964 164.085 230.084C164.309 230.204 164.481 230.364 164.601 230.564V230.012C164.601 229.516 164.433 229.128 164.097 228.848C163.769 228.56 163.333 228.416 162.789 228.416C162.365 228.416 161.961 228.544 161.577 228.8C161.193 229.056 160.877 229.472 160.629 230.048C160.389 230.624 160.269 231.396 160.269 232.364C160.269 233.068 160.377 233.72 160.593 234.32C160.809 234.92 161.141 235.404 161.589 235.772C162.037 236.132 162.597 236.312 163.269 236.312H164.949V237.128H163.269ZM163.329 234.068C163.697 234.068 164.001 233.932 164.241 233.66C164.481 233.38 164.601 232.948 164.601 232.364C164.601 231.78 164.481 231.352 164.241 231.08C164.001 230.8 163.697 230.66 163.329 230.66C162.961 230.66 162.657 230.8 162.417 231.08C162.177 231.352 162.057 231.78 162.057 232.364C162.057 232.948 162.177 233.38 162.417 233.66C162.657 233.932 162.961 234.068 163.329 234.068ZM166.828 236V235.088H169V228.788L166.948 229.184V228.416L169.336 227.6H170.008V235.088H172.3V236H166.828ZM176.784 236.144C176.152 236.144 175.592 235.968 175.104 235.616C174.624 235.264 174.248 234.764 173.976 234.116C173.712 233.468 173.58 232.696 173.58 231.8C173.58 230.904 173.712 230.132 173.976 229.484C174.248 228.836 174.624 228.336 175.104 227.984C175.592 227.632 176.152 227.456 176.784 227.456C177.424 227.456 177.984 227.632 178.464 227.984C178.944 228.336 179.316 228.836 179.58 229.484C179.852 230.132 179.988 230.904 179.988 231.8C179.988 232.696 179.852 233.468 179.58 234.116C179.316 234.764 178.944 235.264 178.464 235.616C177.984 235.968 177.424 236.144 176.784 236.144ZM174.612 231.8C174.612 232.344 174.668 232.836 174.78 233.276C174.9 233.708 175.064 234.072 175.272 234.368L177.6 228.596C177.352 228.46 177.08 228.392 176.784 228.392C176.36 228.392 175.984 228.532 175.656 228.812C175.328 229.084 175.072 229.476 174.888 229.988C174.704 230.492 174.612 231.096 174.612 231.8ZM176.784 235.22C177.208 235.22 177.584 235.084 177.912 234.812C178.24 234.532 178.496 234.136 178.68 233.624C178.864 233.112 178.956 232.504 178.956 231.8C178.956 231.256 178.896 230.768 178.776 230.336C178.664 229.896 178.504 229.528 178.296 229.232L175.956 235.016C176.212 235.152 176.488 235.22 176.784 235.22Z" fill="#4D4D4D"/>
<path d="M217 51H251V211H217V51Z" fill="url(#paint2_linear_6344_950)"/>
<rect x="251" y="96" width="34" height="115" fill="#1D2127"/>
<path d="M262.6 86.144C262.024 86.144 261.528 86.036 261.112 85.82C260.696 85.604 260.368 85.312 260.128 84.944C259.888 84.576 259.744 84.156 259.696 83.684H260.728C260.8 84.14 261.004 84.512 261.34 84.8C261.676 85.08 262.1 85.22 262.612 85.22C263.212 85.22 263.684 85.028 264.028 84.644C264.372 84.252 264.544 83.76 264.544 83.168C264.544 82.544 264.368 82.056 264.016 81.704C263.664 81.344 263.208 81.164 262.648 81.164C262.2 81.164 261.816 81.268 261.496 81.476C261.184 81.676 260.932 81.932 260.74 82.244H259.78L260.5 77.6H264.988V78.524H261.292L260.848 81.02H260.908C261.092 80.82 261.34 80.644 261.652 80.492C261.972 80.34 262.34 80.264 262.756 80.264C263.308 80.264 263.788 80.384 264.196 80.624C264.612 80.856 264.936 81.192 265.168 81.632C265.4 82.064 265.516 82.572 265.516 83.156C265.516 83.7 265.4 84.2 265.168 84.656C264.944 85.104 264.612 85.464 264.172 85.736C263.74 86.008 263.216 86.144 262.6 86.144ZM267.035 86V85.088H269.207V78.788L267.155 79.184V78.416L269.543 77.6H270.215V85.088H272.507V86H267.035ZM276.991 86.024C276.743 86.024 276.531 85.94 276.355 85.772C276.179 85.604 276.091 85.396 276.091 85.148C276.091 84.908 276.179 84.704 276.355 84.536C276.531 84.368 276.743 84.284 276.991 84.284C277.239 84.284 277.451 84.368 277.627 84.536C277.803 84.704 277.891 84.908 277.891 85.148C277.891 85.396 277.803 85.604 277.627 85.772C277.451 85.94 277.239 86.024 276.991 86.024ZM282.65 86L285.926 78.512H281.342V77.6H286.97V78.404L283.718 86H282.65ZM289.773 81.176C289.261 81.176 288.837 81.008 288.501 80.672C288.173 80.336 288.009 79.884 288.009 79.316C288.009 78.748 288.173 78.296 288.501 77.96C288.837 77.624 289.261 77.456 289.773 77.456C290.285 77.456 290.705 77.624 291.033 77.96C291.369 78.296 291.537 78.748 291.537 79.316C291.537 79.884 291.369 80.336 291.033 80.672C290.705 81.008 290.285 81.176 289.773 81.176ZM289.773 80.456C290.029 80.456 290.253 80.36 290.445 80.168C290.645 79.968 290.745 79.684 290.745 79.316C290.745 78.948 290.645 78.668 290.445 78.476C290.253 78.276 290.029 78.176 289.773 78.176C289.517 78.176 289.289 78.276 289.089 78.476C288.897 78.668 288.801 78.948 288.801 79.316C288.801 79.684 288.897 79.968 289.089 80.168C289.289 80.36 289.517 80.456 289.773 80.456ZM288.621 85.22L288.045 84.656L294.141 78.38L294.717 78.944L288.621 85.22ZM292.989 86.144C292.477 86.144 292.053 85.976 291.717 85.64C291.389 85.304 291.225 84.852 291.225 84.284C291.225 83.716 291.389 83.264 291.717 82.928C292.053 82.592 292.477 82.424 292.989 82.424C293.501 82.424 293.921 82.592 294.249 82.928C294.585 83.264 294.753 83.716 294.753 84.284C294.753 84.852 294.585 85.304 294.249 85.64C293.921 85.976 293.501 86.144 292.989 86.144ZM292.989 85.424C293.245 85.424 293.469 85.328 293.661 85.136C293.861 84.936 293.961 84.652 293.961 84.284C293.961 83.916 293.861 83.636 293.661 83.444C293.469 83.244 293.245 83.144 292.989 83.144C292.733 83.144 292.505 83.244 292.305 83.444C292.113 83.636 292.017 83.916 292.017 84.284C292.017 84.652 292.113 84.936 292.305 85.136C292.505 85.328 292.733 85.424 292.989 85.424Z" fill="#4D4D4D"/>
<path d="M226.5 236V227.6H227.532L231.348 234.236V227.6H232.344V236H231.3L227.484 229.364V236H226.5ZM233.804 236V227.6H235.568C236.944 227.6 237.96 227.976 238.616 228.728C239.28 229.48 239.612 230.504 239.612 231.8C239.612 233.096 239.28 234.12 238.616 234.872C237.96 235.624 236.944 236 235.568 236H233.804ZM234.812 235.076H235.544C236.28 235.076 236.868 234.94 237.308 234.668C237.756 234.396 238.08 234.016 238.28 233.528C238.48 233.04 238.58 232.464 238.58 231.8C238.58 231.136 238.48 230.56 238.28 230.072C238.08 229.584 237.756 229.204 237.308 228.932C236.868 228.66 236.28 228.524 235.544 228.524H234.812V235.076ZM243.867 236.144C243.187 236.144 242.599 235.964 242.103 235.604C241.615 235.244 241.239 234.74 240.975 234.092C240.719 233.444 240.591 232.68 240.591 231.8C240.591 230.928 240.719 230.168 240.975 229.52C241.239 228.864 241.615 228.356 242.103 227.996C242.599 227.636 243.187 227.456 243.867 227.456C244.731 227.456 245.427 227.696 245.955 228.176C246.483 228.648 246.791 229.28 246.879 230.072H245.763C245.683 229.6 245.483 229.204 245.163 228.884C244.843 228.564 244.411 228.404 243.867 228.404C243.171 228.404 242.623 228.708 242.223 229.316C241.823 229.916 241.623 230.744 241.623 231.8C241.623 232.864 241.823 233.696 242.223 234.296C242.623 234.896 243.171 235.196 243.867 235.196C244.435 235.196 244.871 235.044 245.175 234.74C245.487 234.436 245.683 234.044 245.763 233.564H246.879C246.751 234.364 246.431 234.996 245.919 235.46C245.415 235.916 244.731 236.144 243.867 236.144ZM250.918 236.144C250.326 236.144 249.798 235.972 249.334 235.628C248.87 235.276 248.506 234.776 248.242 234.128C247.986 233.48 247.858 232.704 247.858 231.8C247.858 230.904 247.99 230.132 248.254 229.484C248.518 228.836 248.89 228.336 249.37 227.984C249.858 227.632 250.434 227.456 251.098 227.456C251.89 227.456 252.534 227.688 253.03 228.152C253.534 228.616 253.834 229.24 253.93 230.024H252.814C252.734 229.544 252.546 229.156 252.25 228.86C251.962 228.556 251.578 228.404 251.098 228.404C250.41 228.404 249.87 228.704 249.478 229.304C249.086 229.904 248.89 230.736 248.89 231.8C248.89 232.88 249.086 233.716 249.478 234.308C249.87 234.9 250.378 235.196 251.002 235.196C251.45 235.196 251.818 235.064 252.106 234.8C252.394 234.528 252.61 234.184 252.754 233.768C252.906 233.344 252.99 232.908 253.006 232.46H251.134V231.596H254.038V236H253.114L253.03 234.728H252.982C252.814 235.16 252.566 235.504 252.238 235.76C251.918 236.016 251.478 236.144 250.918 236.144ZM259.074 237.128C258.202 237.128 257.474 236.92 256.89 236.504C256.314 236.096 255.882 235.532 255.594 234.812C255.306 234.092 255.162 233.276 255.162 232.364C255.162 231.532 255.254 230.816 255.438 230.216C255.63 229.616 255.89 229.124 256.218 228.74C256.546 228.348 256.914 228.06 257.322 227.876C257.73 227.692 258.154 227.6 258.594 227.6C259.418 227.6 260.07 227.808 260.55 228.224C261.03 228.64 261.27 229.236 261.27 230.012V234.716H260.55L260.454 234.032H260.406C260.286 234.256 260.114 234.444 259.89 234.596C259.674 234.748 259.398 234.824 259.062 234.824C258.462 234.824 257.966 234.608 257.574 234.176C257.182 233.744 256.986 233.136 256.986 232.352C256.986 231.568 257.178 230.964 257.562 230.54C257.954 230.116 258.454 229.904 259.062 229.904C259.398 229.904 259.674 229.964 259.89 230.084C260.114 230.204 260.286 230.364 260.406 230.564V230.012C260.406 229.516 260.238 229.128 259.902 228.848C259.574 228.56 259.138 228.416 258.594 228.416C258.17 228.416 257.766 228.544 257.382 228.8C256.998 229.056 256.682 229.472 256.434 230.048C256.194 230.624 256.074 231.396 256.074 232.364C256.074 233.068 256.182 233.72 256.398 234.32C256.614 234.92 256.946 235.404 257.394 235.772C257.842 236.132 258.402 236.312 259.074 236.312H260.754V237.128H259.074ZM259.134 234.068C259.502 234.068 259.806 233.932 260.046 233.66C260.286 233.38 260.406 232.948 260.406 232.364C260.406 231.78 260.286 231.352 260.046 231.08C259.806 230.8 259.502 230.66 259.134 230.66C258.766 230.66 258.462 230.8 258.222 231.08C257.982 231.352 257.862 231.78 257.862 232.364C257.862 232.948 257.982 233.38 258.222 233.66C258.462 233.932 258.766 234.068 259.134 234.068ZM262.633 236V235.088H264.805V228.788L262.753 229.184V228.416L265.141 227.6H265.813V235.088H268.105V236H262.633ZM272.588 236.144C271.956 236.144 271.396 235.968 270.908 235.616C270.428 235.264 270.052 234.764 269.78 234.116C269.516 233.468 269.384 232.696 269.384 231.8C269.384 230.904 269.516 230.132 269.78 229.484C270.052 228.836 270.428 228.336 270.908 227.984C271.396 227.632 271.956 227.456 272.588 227.456C273.228 227.456 273.788 227.632 274.268 227.984C274.748 228.336 275.12 228.836 275.384 229.484C275.656 230.132 275.792 230.904 275.792 231.8C275.792 232.696 275.656 233.468 275.384 234.116C275.12 234.764 274.748 235.264 274.268 235.616C273.788 235.968 273.228 236.144 272.588 236.144ZM270.416 231.8C270.416 232.344 270.472 232.836 270.584 233.276C270.704 233.708 270.868 234.072 271.076 234.368L273.404 228.596C273.156 228.46 272.884 228.392 272.588 228.392C272.164 228.392 271.788 228.532 271.46 228.812C271.132 229.084 270.876 229.476 270.692 229.988C270.508 230.492 270.416 231.096 270.416 231.8ZM272.588 235.22C273.012 235.22 273.388 235.084 273.716 234.812C274.044 234.532 274.3 234.136 274.484 233.624C274.668 233.112 274.76 232.504 274.76 231.8C274.76 231.256 274.7 230.768 274.58 230.336C274.468 229.896 274.308 229.528 274.1 229.232L271.76 235.016C272.016 235.152 272.292 235.22 272.588 235.22Z" fill="#4D4D4D"/>
<path d="M320 62H354V211H320V62Z" fill="url(#paint3_linear_6344_950)"/>
<rect x="354" y="110" width="34" height="101" fill="#1D2127"/>
<path d="M313.791 51.144C313.055 51.144 312.455 50.968 311.991 50.616C311.535 50.256 311.195 49.776 310.971 49.176C310.755 48.568 310.647 47.884 310.647 47.124C310.647 46.204 310.775 45.396 311.031 44.7C311.287 43.996 311.655 43.448 312.135 43.056C312.623 42.656 313.207 42.456 313.887 42.456C314.423 42.456 314.879 42.56 315.255 42.768C315.639 42.968 315.939 43.244 316.155 43.596C316.379 43.94 316.511 44.328 316.551 44.76H315.603C315.523 44.336 315.331 44 315.027 43.752C314.723 43.496 314.343 43.368 313.887 43.368C313.487 43.368 313.119 43.496 312.783 43.752C312.455 44 312.183 44.388 311.967 44.916C311.759 45.436 311.639 46.1 311.607 46.908H311.667C311.851 46.564 312.135 46.264 312.519 46.008C312.903 45.752 313.367 45.624 313.911 45.624C314.415 45.624 314.867 45.74 315.267 45.972C315.667 46.204 315.983 46.524 316.215 46.932C316.455 47.34 316.575 47.804 316.575 48.324C316.575 48.836 316.459 49.308 316.227 49.74C316.003 50.164 315.679 50.504 315.255 50.76C314.839 51.016 314.351 51.144 313.791 51.144ZM313.719 50.232C314.271 50.232 314.715 50.056 315.051 49.704C315.387 49.352 315.555 48.912 315.555 48.384C315.555 47.848 315.387 47.408 315.051 47.064C314.715 46.712 314.271 46.536 313.719 46.536C313.351 46.536 313.027 46.616 312.747 46.776C312.475 46.936 312.259 47.156 312.099 47.436C311.947 47.716 311.871 48.032 311.871 48.384C311.871 48.736 311.947 49.052 312.099 49.332C312.259 49.612 312.475 49.832 312.747 49.992C313.027 50.152 313.351 50.232 313.719 50.232ZM320.987 51.144C320.251 51.144 319.651 50.968 319.187 50.616C318.731 50.256 318.391 49.776 318.167 49.176C317.951 48.568 317.843 47.884 317.843 47.124C317.843 46.204 317.971 45.396 318.227 44.7C318.483 43.996 318.851 43.448 319.331 43.056C319.819 42.656 320.403 42.456 321.083 42.456C321.619 42.456 322.075 42.56 322.451 42.768C322.835 42.968 323.135 43.244 323.351 43.596C323.575 43.94 323.707 44.328 323.747 44.76H322.799C322.719 44.336 322.527 44 322.223 43.752C321.919 43.496 321.539 43.368 321.083 43.368C320.683 43.368 320.315 43.496 319.979 43.752C319.651 44 319.379 44.388 319.163 44.916C318.955 45.436 318.835 46.1 318.803 46.908H318.863C319.047 46.564 319.331 46.264 319.715 46.008C320.099 45.752 320.563 45.624 321.107 45.624C321.611 45.624 322.063 45.74 322.463 45.972C322.863 46.204 323.179 46.524 323.411 46.932C323.651 47.34 323.771 47.804 323.771 48.324C323.771 48.836 323.655 49.308 323.423 49.74C323.199 50.164 322.875 50.504 322.451 50.76C322.035 51.016 321.547 51.144 320.987 51.144ZM320.915 50.232C321.467 50.232 321.911 50.056 322.247 49.704C322.583 49.352 322.751 48.912 322.751 48.384C322.751 47.848 322.583 47.408 322.247 47.064C321.911 46.712 321.467 46.536 320.915 46.536C320.547 46.536 320.223 46.616 319.943 46.776C319.671 46.936 319.455 47.156 319.295 47.436C319.143 47.716 319.067 48.032 319.067 48.384C319.067 48.736 319.143 49.052 319.295 49.332C319.455 49.612 319.671 49.832 319.943 49.992C320.223 50.152 320.547 50.232 320.915 50.232ZM328.014 51.024C327.766 51.024 327.554 50.94 327.378 50.772C327.202 50.604 327.114 50.396 327.114 50.148C327.114 49.908 327.202 49.704 327.378 49.536C327.554 49.368 327.766 49.284 328.014 49.284C328.262 49.284 328.474 49.368 328.65 49.536C328.826 49.704 328.914 49.908 328.914 50.148C328.914 50.396 328.826 50.604 328.65 50.772C328.474 50.94 328.262 51.024 328.014 51.024ZM335.209 51.144C334.633 51.144 334.137 51.036 333.721 50.82C333.305 50.604 332.977 50.312 332.737 49.944C332.497 49.576 332.353 49.156 332.305 48.684H333.337C333.409 49.14 333.613 49.512 333.949 49.8C334.285 50.08 334.709 50.22 335.221 50.22C335.821 50.22 336.293 50.028 336.637 49.644C336.981 49.252 337.153 48.76 337.153 48.168C337.153 47.544 336.977 47.056 336.625 46.704C336.273 46.344 335.817 46.164 335.257 46.164C334.809 46.164 334.425 46.268 334.105 46.476C333.793 46.676 333.541 46.932 333.349 47.244H332.389L333.109 42.6H337.597V43.524H333.901L333.457 46.02H333.517C333.701 45.82 333.949 45.644 334.261 45.492C334.581 45.34 334.949 45.264 335.365 45.264C335.917 45.264 336.397 45.384 336.805 45.624C337.221 45.856 337.545 46.192 337.777 46.632C338.009 47.064 338.125 47.572 338.125 48.156C338.125 48.7 338.009 49.2 337.777 49.656C337.553 50.104 337.221 50.464 336.781 50.736C336.349 51.008 335.825 51.144 335.209 51.144ZM340.797 46.176C340.285 46.176 339.861 46.008 339.525 45.672C339.197 45.336 339.033 44.884 339.033 44.316C339.033 43.748 339.197 43.296 339.525 42.96C339.861 42.624 340.285 42.456 340.797 42.456C341.309 42.456 341.729 42.624 342.057 42.96C342.393 43.296 342.561 43.748 342.561 44.316C342.561 44.884 342.393 45.336 342.057 45.672C341.729 46.008 341.309 46.176 340.797 46.176ZM340.797 45.456C341.053 45.456 341.277 45.36 341.469 45.168C341.669 44.968 341.769 44.684 341.769 44.316C341.769 43.948 341.669 43.668 341.469 43.476C341.277 43.276 341.053 43.176 340.797 43.176C340.541 43.176 340.313 43.276 340.113 43.476C339.921 43.668 339.825 43.948 339.825 44.316C339.825 44.684 339.921 44.968 340.113 45.168C340.313 45.36 340.541 45.456 340.797 45.456ZM339.645 50.22L339.069 49.656L345.165 43.38L345.741 43.944L339.645 50.22ZM344.013 51.144C343.501 51.144 343.077 50.976 342.741 50.64C342.413 50.304 342.249 49.852 342.249 49.284C342.249 48.716 342.413 48.264 342.741 47.928C343.077 47.592 343.501 47.424 344.013 47.424C344.525 47.424 344.945 47.592 345.273 47.928C345.609 48.264 345.777 48.716 345.777 49.284C345.777 49.852 345.609 50.304 345.273 50.64C344.945 50.976 344.525 51.144 344.013 51.144ZM344.013 50.424C344.269 50.424 344.493 50.328 344.685 50.136C344.885 49.936 344.985 49.652 344.985 49.284C344.985 48.916 344.885 48.636 344.685 48.444C344.493 48.244 344.269 48.144 344.013 48.144C343.757 48.144 343.529 48.244 343.329 48.444C343.137 48.636 343.041 48.916 343.041 49.284C343.041 49.652 343.137 49.936 343.329 50.136C343.529 50.328 343.757 50.424 344.013 50.424Z" fill="#267BF1"/>
<path d="M366.632 99V97.056H362.612V96.276L366.44 90.6H367.64V96.144H368.84V97.056H367.64V99H366.632ZM363.74 96.144H366.68V91.776L363.74 96.144ZM372.795 99.144C372.219 99.144 371.723 99.036 371.307 98.82C370.891 98.604 370.563 98.312 370.323 97.944C370.083 97.576 369.939 97.156 369.891 96.684H370.923C370.995 97.14 371.199 97.512 371.535 97.8C371.871 98.08 372.295 98.22 372.807 98.22C373.407 98.22 373.879 98.028 374.223 97.644C374.567 97.252 374.739 96.76 374.739 96.168C374.739 95.544 374.563 95.056 374.211 94.704C373.859 94.344 373.403 94.164 372.843 94.164C372.395 94.164 372.011 94.268 371.691 94.476C371.379 94.676 371.127 94.932 370.935 95.244H369.975L370.695 90.6H375.183V91.524H371.487L371.043 94.02H371.103C371.287 93.82 371.535 93.644 371.847 93.492C372.167 93.34 372.535 93.264 372.951 93.264C373.503 93.264 373.983 93.384 374.391 93.624C374.807 93.856 375.131 94.192 375.363 94.632C375.595 95.064 375.711 95.572 375.711 96.156C375.711 96.7 375.595 97.2 375.363 97.656C375.139 98.104 374.807 98.464 374.367 98.736C373.935 99.008 373.411 99.144 372.795 99.144ZM379.991 99.024C379.743 99.024 379.531 98.94 379.355 98.772C379.179 98.604 379.091 98.396 379.091 98.148C379.091 97.908 379.179 97.704 379.355 97.536C379.531 97.368 379.743 97.284 379.991 97.284C380.239 97.284 380.451 97.368 380.627 97.536C380.803 97.704 380.891 97.908 380.891 98.148C380.891 98.396 380.803 98.604 380.627 98.772C380.451 98.94 380.239 99.024 379.991 99.024ZM388.218 99V97.056H384.198V96.276L388.026 90.6H389.226V96.144H390.426V97.056H389.226V99H388.218ZM385.326 96.144H388.266V91.776L385.326 96.144ZM392.773 94.176C392.261 94.176 391.837 94.008 391.501 93.672C391.173 93.336 391.009 92.884 391.009 92.316C391.009 91.748 391.173 91.296 391.501 90.96C391.837 90.624 392.261 90.456 392.773 90.456C393.285 90.456 393.705 90.624 394.033 90.96C394.369 91.296 394.537 91.748 394.537 92.316C394.537 92.884 394.369 93.336 394.033 93.672C393.705 94.008 393.285 94.176 392.773 94.176ZM392.773 93.456C393.029 93.456 393.253 93.36 393.445 93.168C393.645 92.968 393.745 92.684 393.745 92.316C393.745 91.948 393.645 91.668 393.445 91.476C393.253 91.276 393.029 91.176 392.773 91.176C392.517 91.176 392.289 91.276 392.089 91.476C391.897 91.668 391.801 91.948 391.801 92.316C391.801 92.684 391.897 92.968 392.089 93.168C392.289 93.36 392.517 93.456 392.773 93.456ZM391.621 98.22L391.045 97.656L397.141 91.38L397.717 91.944L391.621 98.22ZM395.989 99.144C395.477 99.144 395.053 98.976 394.717 98.64C394.389 98.304 394.225 97.852 394.225 97.284C394.225 96.716 394.389 96.264 394.717 95.928C395.053 95.592 395.477 95.424 395.989 95.424C396.501 95.424 396.921 95.592 397.249 95.928C397.585 96.264 397.753 96.716 397.753 97.284C397.753 97.852 397.585 98.304 397.249 98.64C396.921 98.976 396.501 99.144 395.989 99.144ZM395.989 98.424C396.245 98.424 396.469 98.328 396.661 98.136C396.861 97.936 396.961 97.652 396.961 97.284C396.961 96.916 396.861 96.636 396.661 96.444C396.469 96.244 396.245 96.144 395.989 96.144C395.733 96.144 395.505 96.244 395.305 96.444C395.113 96.636 395.017 96.916 395.017 97.284C395.017 97.652 395.113 97.936 395.305 98.136C395.505 98.328 395.733 98.424 395.989 98.424Z" fill="#4D4D4D"/>
<path d="M333.014 236V227.6H334.094L336.014 231.596L337.934 227.6H339.014V236H338.03V229.544L336.398 232.94H335.63L333.998 229.556V236H333.014ZM340.005 236L342.633 227.6H343.797L346.413 236H345.309L344.697 233.912H341.721L341.109 236H340.005ZM343.185 229.016L341.973 233.072H344.445L343.233 229.016H343.185ZM347.693 236V227.6H350.489C351.129 227.6 351.653 227.716 352.061 227.948C352.469 228.18 352.769 228.488 352.961 228.872C353.153 229.256 353.249 229.68 353.249 230.144C353.249 230.608 353.153 231.032 352.961 231.416C352.769 231.8 352.469 232.108 352.061 232.34C351.653 232.572 351.129 232.688 350.489 232.688H348.701V236H347.693ZM348.701 231.764H350.465C351.057 231.764 351.497 231.616 351.785 231.32C352.073 231.016 352.217 230.624 352.217 230.144C352.217 229.664 352.073 229.272 351.785 228.968C351.497 228.664 351.057 228.512 350.465 228.512H348.701V231.764ZM358.476 237.128C357.604 237.128 356.876 236.92 356.292 236.504C355.716 236.096 355.284 235.532 354.996 234.812C354.708 234.092 354.564 233.276 354.564 232.364C354.564 231.532 354.656 230.816 354.84 230.216C355.032 229.616 355.292 229.124 355.62 228.74C355.948 228.348 356.316 228.06 356.724 227.876C357.132 227.692 357.556 227.6 357.996 227.6C358.82 227.6 359.472 227.808 359.952 228.224C360.432 228.64 360.672 229.236 360.672 230.012V234.716H359.952L359.856 234.032H359.808C359.688 234.256 359.516 234.444 359.292 234.596C359.076 234.748 358.8 234.824 358.464 234.824C357.864 234.824 357.368 234.608 356.976 234.176C356.584 233.744 356.388 233.136 356.388 232.352C356.388 231.568 356.58 230.964 356.964 230.54C357.356 230.116 357.856 229.904 358.464 229.904C358.8 229.904 359.076 229.964 359.292 230.084C359.516 230.204 359.688 230.364 359.808 230.564V230.012C359.808 229.516 359.64 229.128 359.304 228.848C358.976 228.56 358.54 228.416 357.996 228.416C357.572 228.416 357.168 228.544 356.784 228.8C356.4 229.056 356.084 229.472 355.836 230.048C355.596 230.624 355.476 231.396 355.476 232.364C355.476 233.068 355.584 233.72 355.8 234.32C356.016 234.92 356.348 235.404 356.796 235.772C357.244 236.132 357.804 236.312 358.476 236.312H360.156V237.128H358.476ZM358.536 234.068C358.904 234.068 359.208 233.932 359.448 233.66C359.688 233.38 359.808 232.948 359.808 232.364C359.808 231.78 359.688 231.352 359.448 231.08C359.208 230.8 358.904 230.66 358.536 230.66C358.168 230.66 357.864 230.8 357.624 231.08C357.384 231.352 357.264 231.78 357.264 232.364C357.264 232.948 357.384 233.38 357.624 233.66C357.864 233.932 358.168 234.068 358.536 234.068ZM362.035 236V235.088H364.207V228.788L362.155 229.184V228.416L364.543 227.6H365.215V235.088H367.507V236H362.035ZM371.991 236.144C371.359 236.144 370.799 235.968 370.311 235.616C369.831 235.264 369.455 234.764 369.183 234.116C368.919 233.468 368.787 232.696 368.787 231.8C368.787 230.904 368.919 230.132 369.183 229.484C369.455 228.836 369.831 228.336 370.311 227.984C370.799 227.632 371.359 227.456 371.991 227.456C372.631 227.456 373.191 227.632 373.671 227.984C374.151 228.336 374.523 228.836 374.787 229.484C375.059 230.132 375.195 230.904 375.195 231.8C375.195 232.696 375.059 233.468 374.787 234.116C374.523 234.764 374.151 235.264 373.671 235.616C373.191 235.968 372.631 236.144 371.991 236.144ZM369.819 231.8C369.819 232.344 369.875 232.836 369.987 233.276C370.107 233.708 370.271 234.072 370.479 234.368L372.807 228.596C372.559 228.46 372.287 228.392 371.991 228.392C371.567 228.392 371.191 228.532 370.863 228.812C370.535 229.084 370.279 229.476 370.095 229.988C369.911 230.492 369.819 231.096 369.819 231.8ZM371.991 235.22C372.415 235.22 372.791 235.084 373.119 234.812C373.447 234.532 373.703 234.136 373.887 233.624C374.071 233.112 374.163 232.504 374.163 231.8C374.163 231.256 374.103 230.768 373.983 230.336C373.871 229.896 373.711 229.528 373.503 229.232L371.163 235.016C371.419 235.152 371.695 235.22 371.991 235.22Z" fill="#4D4D4D"/>
<path d="M4.62344 65.144C4.04744 65.144 3.55144 65.036 3.13544 64.82C2.71944 64.604 2.39144 64.312 2.15144 63.944C1.91144 63.576 1.76744 63.156 1.71944 62.684H2.75144C2.82344 63.14 3.02744 63.512 3.36344 63.8C3.69944 64.08 4.12344 64.22 4.63544 64.22C5.23544 64.22 5.70744 64.028 6.05144 63.644C6.39544 63.252 6.56744 62.76 6.56744 62.168C6.56744 61.544 6.39144 61.056 6.03944 60.704C5.68744 60.344 5.23144 60.164 4.67144 60.164C4.22344 60.164 3.83944 60.268 3.51944 60.476C3.20744 60.676 2.95544 60.932 2.76344 61.244H1.80344L2.52344 56.6H7.01144V57.524H3.31544L2.87144 60.02H2.93144C3.11544 59.82 3.36344 59.644 3.67544 59.492C3.99544 59.34 4.36344 59.264 4.77944 59.264C5.33144 59.264 5.81144 59.384 6.21944 59.624C6.63544 59.856 6.95944 60.192 7.19144 60.632C7.42344 61.064 7.53944 61.572 7.53944 62.156C7.53944 62.7 7.42344 63.2 7.19144 63.656C6.96744 64.104 6.63544 64.464 6.19544 64.736C5.76344 65.008 5.23944 65.144 4.62344 65.144ZM11.6748 65.144C11.1628 65.144 10.7068 65.044 10.3068 64.844C9.91475 64.636 9.59875 64.36 9.35875 64.016C9.12675 63.664 8.99075 63.272 8.95075 62.84H9.92275C9.99475 63.264 10.1828 63.604 10.4868 63.86C10.7988 64.108 11.1948 64.232 11.6748 64.232C12.3068 64.232 12.8228 63.948 13.2228 63.38C13.6228 62.804 13.8508 61.908 13.9068 60.692H13.8348C13.6188 61.068 13.3428 61.376 13.0068 61.616C12.6708 61.856 12.1988 61.976 11.5908 61.976C11.0868 61.976 10.6348 61.86 10.2348 61.628C9.83475 61.396 9.51475 61.076 9.27475 60.668C9.04275 60.26 8.92675 59.796 8.92675 59.276C8.92675 58.764 9.03875 58.296 9.26275 57.872C9.49475 57.44 9.81875 57.096 10.2348 56.84C10.6588 56.584 11.1508 56.456 11.7108 56.456C12.7668 56.456 13.5548 56.816 14.0748 57.536C14.5948 58.256 14.8548 59.236 14.8548 60.476C14.8548 61.396 14.7308 62.208 14.4828 62.912C14.2348 63.608 13.8748 64.156 13.4028 64.556C12.9308 64.948 12.3548 65.144 11.6748 65.144ZM11.7828 61.064C12.3428 61.064 12.7908 60.888 13.1268 60.536C13.4628 60.184 13.6308 59.744 13.6308 59.216C13.6308 58.688 13.4628 58.248 13.1268 57.896C12.7908 57.544 12.3428 57.368 11.7828 57.368C11.2228 57.368 10.7748 57.544 10.4388 57.896C10.1108 58.248 9.94675 58.688 9.94675 59.216C9.94675 59.752 10.1108 60.196 10.4388 60.548C10.7748 60.892 11.2228 61.064 11.7828 61.064ZM19.0141 65.024C18.7661 65.024 18.5541 64.94 18.3781 64.772C18.2021 64.604 18.1141 64.396 18.1141 64.148C18.1141 63.908 18.2021 63.704 18.3781 63.536C18.5541 63.368 18.7661 63.284 19.0141 63.284C19.2621 63.284 19.4741 63.368 19.6501 63.536C19.8261 63.704 19.9141 63.908 19.9141 64.148C19.9141 64.396 19.8261 64.604 19.6501 64.772C19.4741 64.94 19.2621 65.024 19.0141 65.024ZM24.6734 65L27.9494 57.512H23.3654V56.6H28.9934V57.404L25.7414 65H24.6734ZM31.7967 60.176C31.2847 60.176 30.8607 60.008 30.5247 59.672C30.1967 59.336 30.0327 58.884 30.0327 58.316C30.0327 57.748 30.1967 57.296 30.5247 56.96C30.8607 56.624 31.2847 56.456 31.7967 56.456C32.3087 56.456 32.7287 56.624 33.0567 56.96C33.3927 57.296 33.5607 57.748 33.5607 58.316C33.5607 58.884 33.3927 59.336 33.0567 59.672C32.7287 60.008 32.3087 60.176 31.7967 60.176ZM31.7967 59.456C32.0527 59.456 32.2767 59.36 32.4687 59.168C32.6687 58.968 32.7687 58.684 32.7687 58.316C32.7687 57.948 32.6687 57.668 32.4687 57.476C32.2767 57.276 32.0527 57.176 31.7967 57.176C31.5407 57.176 31.3127 57.276 31.1127 57.476C30.9207 57.668 30.8247 57.948 30.8247 58.316C30.8247 58.684 30.9207 58.968 31.1127 59.168C31.3127 59.36 31.5407 59.456 31.7967 59.456ZM30.6447 64.22L30.0687 63.656L36.1647 57.38L36.7407 57.944L30.6447 64.22ZM35.0127 65.144C34.5007 65.144 34.0767 64.976 33.7407 64.64C33.4127 64.304 33.2487 63.852 33.2487 63.284C33.2487 62.716 33.4127 62.264 33.7407 61.928C34.0767 61.592 34.5007 61.424 35.0127 61.424C35.5247 61.424 35.9447 61.592 36.2727 61.928C36.6087 62.264 36.7767 62.716 36.7767 63.284C36.7767 63.852 36.6087 64.304 36.2727 64.64C35.9447 64.976 35.5247 65.144 35.0127 65.144ZM35.0127 64.424C35.2687 64.424 35.4927 64.328 35.6847 64.136C35.8847 63.936 35.9847 63.652 35.9847 63.284C35.9847 62.916 35.8847 62.636 35.6847 62.444C35.4927 62.244 35.2687 62.144 35.0127 62.144C34.7567 62.144 34.5287 62.244 34.3287 62.444C34.1367 62.636 34.0407 62.916 34.0407 63.284C34.0407 63.652 34.1367 63.936 34.3287 64.136C34.5287 64.328 34.7567 64.424 35.0127 64.424Z" fill="#267BF1"/>
<defs>
<linearGradient id="paint0_linear_6344_950" x1="28" y1="210.146" x2="28" y2="77.8541" gradientUnits="userSpaceOnUse">
<stop stop-color="#1B3355"/>
<stop offset="0.610577" stop-color="#267FFA"/>
<stop offset="1" stop-color="#A4E8F5"/>
</linearGradient>
<linearGradient id="paint1_linear_6344_950" x1="131" y1="209.808" x2="131" y2="25.1919" gradientUnits="userSpaceOnUse">
<stop stop-color="#1B3355"/>
<stop offset="0.610577" stop-color="#267FFA"/>
<stop offset="1" stop-color="#A4E8F5"/>
</linearGradient>
<linearGradient id="paint2_linear_6344_950" x1="234" y1="209.98" x2="234" y2="52.0198" gradientUnits="userSpaceOnUse">
<stop stop-color="#1B3355"/>
<stop offset="0.610577" stop-color="#267FFA"/>
<stop offset="1" stop-color="#A4E8F5"/>
</linearGradient>
<linearGradient id="paint3_linear_6344_950" x1="337" y1="210.05" x2="337" y2="62.9497" gradientUnits="userSpaceOnUse">
<stop stop-color="#1B3355"/>
<stop offset="0.610577" stop-color="#267FFA"/>
<stop offset="1" stop-color="#A4E8F5"/>
</linearGradient>
</defs>
</svg>
