<svg width="1384" height="158" viewBox="0 0 1384 158" fill="none" xmlns="http://www.w3.org/2000/svg">
<g clip-path="url(#clip0_6344_3161)">
<path d="M309.553 124.259C298.33 124.259 289.12 121.807 281.951 116.901C274.768 111.996 270.431 104.99 268.928 95.8708L289.066 90.6132C289.872 94.7054 291.241 97.9169 293.147 100.248C295.054 102.592 297.43 104.245 300.263 105.248C303.096 106.237 306.197 106.738 309.553 106.738C314.642 106.738 318.401 105.83 320.831 104.028C323.261 102.212 324.483 99.9766 324.483 97.2801C324.483 94.5835 323.328 92.5238 321.005 91.0603C318.683 89.5969 314.991 88.4044 309.889 87.4694L305.029 86.5886C299.014 85.4233 293.51 83.8108 288.542 81.7646C283.562 79.7185 279.574 76.8864 276.567 73.2684C273.56 69.6504 272.056 64.9754 272.056 59.2571C272.056 50.6118 275.184 43.9855 281.427 39.3648C287.683 34.7576 295.886 32.4404 306.076 32.4404C315.676 32.4404 323.664 34.6085 330.027 38.9176C336.391 43.2403 340.553 48.9044 342.527 55.9101L322.214 62.2111C321.287 57.7801 319.408 54.6228 316.575 52.7528C313.742 50.8828 310.238 49.9478 306.076 49.9478C301.914 49.9478 298.719 50.6795 296.531 52.143C294.329 53.6065 293.228 55.6255 293.228 58.1866C293.228 60.9915 294.383 63.0648 296.705 64.4063C299.014 65.7478 302.143 66.7777 306.076 67.4687L310.936 68.3495C317.421 69.5149 323.288 71.0596 328.551 72.9974C333.813 74.9216 337.975 77.6723 341.05 81.2362C344.111 84.8 345.655 89.624 345.655 95.6946C345.655 104.801 342.379 111.847 335.841 116.806C329.302 121.78 320.536 124.259 309.54 124.259H309.553Z" fill="white"/>
<path d="M383.782 123.907C377.069 123.907 371.202 122.362 366.168 119.259C361.133 116.17 357.226 111.874 354.447 106.386C351.668 100.898 350.285 94.5835 350.285 87.4695V35.6113H372.155V85.7214C372.155 92.2664 373.74 97.1717 376.935 100.437C380.117 103.703 384.655 105.343 390.562 105.343C397.275 105.343 402.484 103.093 406.189 98.5945C409.895 94.0957 411.747 87.8218 411.747 79.7592V35.6113H433.618V122.511H412.096V111.129H408.968C407.585 114.056 404.981 116.915 401.155 119.72C397.342 122.525 391.542 123.921 383.795 123.921L383.782 123.907Z" fill="white"/>
<path d="M449.232 157.553V35.6109H470.754V46.1261H473.882C475.842 42.7385 478.916 39.7302 483.078 37.1014C487.24 34.4726 493.201 33.1582 500.961 33.1582C507.902 33.1582 514.333 34.8791 520.227 38.321C526.134 41.7628 530.873 46.8172 534.458 53.4706C538.042 60.1239 539.842 68.1865 539.842 77.6448V80.4498C539.842 89.9081 538.042 97.9707 534.458 104.624C530.873 111.277 526.121 116.332 520.227 119.774C514.32 123.215 507.902 124.936 500.961 124.936C495.752 124.936 491.389 124.327 487.858 123.094C484.327 121.874 481.494 120.289 479.346 118.364C477.198 116.44 475.493 114.489 474.231 112.497H471.103V157.526H449.232V157.553ZM494.369 105.695C501.203 105.695 506.841 103.499 511.299 99.1225C515.756 94.7457 517.985 88.3498 517.985 79.9349V78.1869C517.985 69.7719 515.729 63.376 511.218 58.9992C506.707 54.6224 501.095 52.4272 494.383 52.4272C487.67 52.4272 482.058 54.6224 477.547 58.9992C473.036 63.376 470.78 69.7719 470.78 78.1869V79.9349C470.78 88.3498 473.036 94.7457 477.547 99.1225C482.058 103.499 487.67 105.695 494.383 105.695H494.369Z" fill="white"/>
<path d="M590.536 124.964C581.97 124.964 574.425 123.121 567.887 119.448C561.349 115.763 556.26 110.573 552.609 103.852C548.97 97.1306 547.145 89.217 547.145 80.111V78.0107C547.145 68.9047 548.93 60.9911 552.528 54.27C556.113 47.5489 561.147 42.3591 567.632 38.6733C574.116 35.0011 581.635 33.1582 590.2 33.1582C598.766 33.1582 606.002 35.0553 612.245 38.8495C618.488 42.6436 623.361 47.9013 626.825 54.6224C630.302 61.3435 632.034 69.135 632.034 78.0107V85.5448H569.364C569.592 91.5071 571.794 96.3447 575.956 100.085C580.118 103.825 585.219 105.695 591.234 105.695C597.249 105.695 601.88 104.353 604.767 101.67C607.653 98.987 609.855 96.0059 611.359 92.7402L629.242 102.199C627.617 105.234 625.281 108.54 622.207 112.104C619.132 115.668 615.064 118.703 609.963 121.21C604.874 123.717 598.39 124.977 590.522 124.977L590.536 124.964ZM569.525 69.0673H609.802C609.332 64.04 607.345 60.0155 603.814 56.9802C600.283 53.9448 595.678 52.4272 590.012 52.4272C584.347 52.4272 579.42 53.9448 575.956 56.9802C572.479 60.0155 570.344 64.0536 569.538 69.0673H569.525Z" fill="white"/>
<path d="M642.789 122.511V35.6111H664.31V45.4217H667.438C668.714 41.9121 670.822 39.3511 673.775 37.7114C676.729 36.0718 680.166 35.2588 684.099 35.2588H694.518V54.8801H683.75C678.192 54.8801 673.628 56.3706 670.043 59.3518C666.458 62.3329 664.659 66.913 664.659 73.1056V122.511H642.789Z" fill="white"/>
<path d="M702.842 122.512V35.6115H724.363V45.0699H727.491C728.995 42.1565 731.478 39.609 734.956 37.4544C738.433 35.2999 742.998 34.2158 748.663 34.2158C754.799 34.2158 759.712 35.4083 763.418 37.8067C767.123 40.2052 769.956 43.3218 771.93 47.1837H775.058C777.018 43.4438 779.797 40.3542 783.395 37.9016C786.98 35.4489 792.068 34.2294 798.673 34.2294C803.99 34.2294 808.823 35.3676 813.173 37.6441C817.509 39.9206 820.987 43.3625 823.591 47.9832C826.196 52.604 827.498 58.4036 827.498 65.4229V122.539H805.628V66.9947C805.628 62.2114 804.406 58.6205 801.989 56.222C799.559 53.8235 796.136 52.6311 791.746 52.6311C786.765 52.6311 782.925 54.2436 780.2 57.4551C777.474 60.6666 776.118 65.2467 776.118 71.209V122.552H754.248V67.0083C754.248 62.2249 753.027 58.634 750.61 56.2355C748.18 53.8371 744.756 52.6446 740.366 52.6446C735.385 52.6446 731.546 54.2572 728.82 57.4687C726.095 60.6801 724.739 65.2603 724.739 71.2225V122.566H702.869L702.842 122.512Z" fill="white"/>
<path d="M881.643 124.964C873.078 124.964 865.533 123.121 858.994 119.448C852.456 115.763 847.368 110.573 843.716 103.852C840.078 97.1306 838.252 89.217 838.252 80.111V78.0107C838.252 68.9047 840.038 60.9911 843.636 54.27C847.22 47.5489 852.255 42.3591 858.739 38.6733C865.224 35.0011 872.742 33.1582 881.308 33.1582C889.873 33.1582 897.11 35.0553 903.352 38.8495C909.595 42.6436 914.469 47.9013 917.933 54.6224C921.41 61.3435 923.142 69.135 923.142 78.0107V85.5448H860.471C860.699 91.5071 862.901 96.3447 867.063 100.085C871.225 103.825 876.327 105.695 882.342 105.695C888.356 105.695 892.988 104.353 895.888 101.67C898.774 98.987 900.976 96.0059 902.48 92.7402L920.363 102.199C918.738 105.234 916.402 108.54 913.328 112.104C910.253 115.668 906.185 118.703 901.084 121.21C895.995 123.717 889.511 124.977 881.643 124.977V124.964ZM860.646 69.0673H900.922C900.453 64.04 898.466 60.0155 894.935 56.9802C891.404 53.9448 886.799 52.4272 881.133 52.4272C875.468 52.4272 870.54 53.9448 867.077 56.9802C863.599 60.0155 861.465 64.0536 860.659 69.0673H860.646Z" fill="white"/>
<path d="M933.895 122.511V35.6106H955.416V45.0689H958.544C960.047 42.1555 962.531 39.608 966.009 37.4534C969.486 35.2989 974.05 34.2148 979.716 34.2148C985.851 34.2148 990.765 35.4073 994.471 37.8058C998.176 40.2042 1001.01 43.3208 1002.98 47.1828H1006.11C1008.07 43.4428 1010.85 40.3533 1014.45 37.9006C1018.03 35.4479 1023.12 34.2284 1029.73 34.2284C1035.04 34.2284 1039.88 35.3666 1044.23 37.6431C1048.56 39.9196 1052.04 43.3615 1054.64 47.9823C1057.25 52.603 1058.55 58.4027 1058.55 65.4219V122.538H1036.68V66.9937C1036.68 62.2104 1035.46 58.6195 1033.04 56.221C1030.61 53.8226 1027.19 52.6301 1022.8 52.6301C1017.82 52.6301 1013.98 54.2426 1011.25 57.4541C1008.53 60.6656 1007.17 65.2457 1007.17 71.208V122.551H985.301V67.0073C985.301 62.2239 984.079 58.633 981.663 56.2346C979.233 53.8361 975.809 52.6437 971.419 52.6437C966.438 52.6437 962.598 54.2562 959.873 57.4677C957.148 60.6792 955.792 65.2593 955.792 71.2215V122.565H933.921L933.895 122.511Z" fill="white"/>
<path d="M1114.44 124.964C1105.88 124.964 1098.18 123.215 1091.35 119.706C1084.52 116.196 1079.13 111.115 1075.2 104.461C1071.27 97.8081 1069.29 89.7997 1069.29 80.4634V77.6584C1069.29 68.3085 1071.25 60.3136 1075.2 53.6603C1079.13 47.0069 1084.52 41.9254 1091.35 38.4158C1098.17 34.9062 1105.88 33.1582 1114.44 33.1582C1123.01 33.1582 1130.7 34.9062 1137.53 38.4158C1144.36 41.9254 1149.74 47.0069 1153.69 53.6603C1157.62 60.3136 1159.58 68.322 1159.58 77.6584V80.4634C1159.58 89.8133 1157.61 97.8081 1153.69 104.461C1149.75 111.115 1144.37 116.196 1137.53 119.706C1130.7 123.215 1123.01 124.964 1114.44 124.964ZM1114.44 105.342C1121.16 105.342 1126.7 103.147 1131.1 98.7702C1135.51 94.3934 1137.7 88.1059 1137.7 79.9349V78.1869C1137.7 70.0158 1135.52 63.7284 1131.18 59.3515C1126.85 54.9747 1121.26 52.7795 1114.43 52.7795C1107.6 52.7795 1102.16 54.9747 1097.77 59.3515C1093.36 63.7284 1091.18 70.0158 1091.18 78.1869V79.9349C1091.18 88.1059 1093.36 94.3934 1097.77 98.7702C1102.17 103.147 1107.72 105.342 1114.43 105.342H1114.44Z" fill="white"/>
<path d="M1171.03 122.511V35.6111H1192.55V45.4217H1195.68C1196.96 41.9121 1199.06 39.3511 1202.02 37.7114C1204.97 36.0718 1208.41 35.2588 1212.34 35.2588H1222.76V54.8801H1211.99C1206.43 54.8801 1201.87 56.3706 1198.29 59.3518C1194.7 62.3329 1192.9 66.913 1192.9 73.1056V122.511H1171.03Z" fill="white"/>
<path d="M1240.47 157.553V138.284H1287.34C1290.57 138.284 1292.2 136.536 1292.2 133.027V111.129H1289.07C1288.14 113.121 1286.69 115.099 1284.73 117.091C1282.76 119.083 1280.1 120.709 1276.74 121.996C1273.39 123.284 1269.1 123.921 1263.9 123.921C1257.18 123.921 1251.3 122.376 1246.28 119.273C1241.25 116.183 1237.34 111.888 1234.56 106.4C1231.78 100.912 1230.4 94.5971 1230.4 87.483V35.6113H1252.27V85.7214C1252.27 92.2664 1253.85 97.1717 1257.05 100.437C1260.23 103.703 1264.77 105.343 1270.68 105.343C1277.39 105.343 1282.6 103.093 1286.3 98.5945C1290.01 94.0957 1291.86 87.8218 1291.86 79.7592V35.6113H1313.73V137.932C1313.73 143.894 1312 148.65 1308.52 152.214C1305.04 155.778 1300.41 157.553 1294.64 157.553H1240.48H1240.47Z" fill="white"/>
<path d="M1332.08 42.1836H1339.56V63.6477H1345.74V42.1836H1353.22V36.3975H1332.08V42.1836Z" fill="white"/>
<path d="M1373.8 36.3975L1369.58 57.8345L1365.38 36.3975H1355.18V63.6477H1361.2V44.1891L1365.04 63.6477H1374.13L1377.97 44.1891V63.6477H1384V36.3975H1373.8Z" fill="white"/>
<path d="M193.032 62.3192H121.394V0H98.248V67.6175C98.248 74.7993 101.081 81.6966 106.115 86.778L164.611 145.818L180.976 129.3L137.773 85.694H193.046V62.3328L193.032 62.3192Z" fill="white"/>
<path d="M12.0696 28.6998L55.273 72.3057H0V95.6669H71.6388V157.986H94.7844V90.3686C94.7844 83.1868 91.9516 76.2895 86.917 71.2081L28.4353 12.1816L12.0696 28.6998Z" fill="white"/>
</g>
<defs>
<clipPath id="clip0_6344_3161">
<rect width="1384" height="158" fill="white"/>
</clipPath>
</defs>
</svg>
