<svg width="212" height="24" viewBox="0 0 212 24" fill="none" xmlns="http://www.w3.org/2000/svg">
<path d="M7.82358 17.5936C5.69074 17.5936 3.94058 17.1279 2.57822 16.1965C1.21331 15.2652 0.389255 13.935 0.103516 12.2034L3.93038 11.2051C4.08346 11.9821 4.34368 12.5919 4.70596 13.0345C5.06824 13.4796 5.5198 13.7935 6.05812 13.9839C6.59643 14.1717 7.18577 14.2669 7.82358 14.2669C8.7905 14.2669 9.50485 14.0945 9.96662 13.7523C10.4284 13.4075 10.6606 12.983 10.6606 12.471C10.6606 11.959 10.4412 11.5679 9.99979 11.29C9.55843 11.0122 8.85683 10.7857 7.88736 10.6082L6.96381 10.441C5.82085 10.2197 4.77484 9.91353 3.83088 9.52502C2.88437 9.13651 2.12665 8.59878 1.55517 7.91181C0.983695 7.22485 0.697956 6.3372 0.697956 5.25143C0.697956 3.60993 1.29239 2.35178 2.47872 1.47442C3.6676 0.599633 5.22641 0.159668 7.16281 0.159668C8.98694 0.159668 10.5049 0.571331 11.7142 1.38951C12.9235 2.21027 13.7144 3.28574 14.0894 4.61593L10.2294 5.81233C10.0534 4.97099 9.69619 4.3715 9.15788 4.01644C8.61957 3.66138 7.95369 3.48385 7.16281 3.48385C6.37192 3.48385 5.76472 3.62279 5.34887 3.90066C4.93047 4.17854 4.72127 4.5619 4.72127 5.04818C4.72127 5.58077 4.94067 5.97442 5.38204 6.22914C5.82085 6.48385 6.41529 6.67939 7.16281 6.81061L8.08636 6.97785C9.31861 7.19912 10.4335 7.49243 11.4336 7.86035C12.4337 8.22571 13.2246 8.748 13.8088 9.42468C14.3905 10.1013 14.6839 11.0173 14.6839 12.17C14.6839 13.8989 14.0614 15.2369 12.8189 16.1785C11.5765 17.1228 9.91049 17.5936 7.82103 17.5936H7.82358Z" fill="#EFEFEF"/>
<path d="M21.9298 17.5267C20.6542 17.5267 19.5393 17.2334 18.5826 16.6442C17.6259 16.0576 16.8834 15.242 16.3553 14.2C15.8272 13.1579 15.5645 11.959 15.5645 10.6082V0.761719H19.7204V10.2763C19.7204 11.519 20.0215 12.4504 20.6287 13.0705C21.2333 13.6905 22.0956 14.0019 23.2182 14.0019C24.4938 14.0019 25.4837 13.5748 26.1878 12.7206C26.892 11.8664 27.244 10.6751 27.244 9.14422V0.761719H31.4V17.2617H27.3104V15.1005H26.7159C26.4532 15.6562 25.9582 16.1991 25.2311 16.7317C24.5066 17.2643 23.4044 17.5293 21.9324 17.5293L21.9298 17.5267Z" fill="#EFEFEF"/>
<path d="M34.3672 23.9151V0.761593H38.4568V2.75816H39.0513C39.4238 2.11494 40.008 1.54375 40.7989 1.04461C41.5898 0.54547 42.7225 0.295898 44.1971 0.295898C45.5161 0.295898 46.7382 0.622657 47.8582 1.27617C48.9807 1.92969 49.8813 2.88938 50.5625 4.15267C51.2437 5.41597 51.5855 6.94684 51.5855 8.74273V9.27532C51.5855 11.0712 51.2437 12.6021 50.5625 13.8654C49.8813 15.1287 48.9782 16.0884 47.8582 16.7419C46.7356 17.3954 45.5161 17.7221 44.1971 17.7221C43.2073 17.7221 42.3781 17.6064 41.7071 17.3722C41.0361 17.1407 40.4978 16.8396 40.0896 16.4743C39.6814 16.1089 39.3574 15.7384 39.1176 15.3602H38.5232V23.91H34.3672V23.9151ZM42.9445 14.0686C44.2431 14.0686 45.3146 13.6518 46.1616 12.8208C47.0086 11.9897 47.4321 10.7753 47.4321 9.17755V8.84564C47.4321 7.24787 47.0035 6.03346 46.1463 5.20242C45.2891 4.37137 44.2226 3.95456 42.947 3.95456C41.6714 3.95456 40.605 4.37137 39.7478 5.20242C38.8905 6.03346 38.4619 7.24787 38.4619 8.84564V9.17755C38.4619 10.7753 38.8905 11.9897 39.7478 12.8208C40.605 13.6518 41.6714 14.0686 42.947 14.0686H42.9445Z" fill="#EFEFEF"/>
<path d="M61.2183 17.7273C59.5906 17.7273 58.1568 17.3774 56.9143 16.6801C55.6719 15.9803 54.7049 14.9949 54.011 13.7187C53.3196 12.4426 52.9727 10.94 52.9727 9.21099V8.81219C52.9727 7.08321 53.312 5.58063 53.9957 4.30447C54.6769 3.02832 55.6336 2.0429 56.8658 1.34307C58.0981 0.645813 59.5268 0.295898 61.1545 0.295898C62.7822 0.295898 64.1573 0.656104 65.3436 1.37652C66.53 2.09693 67.4561 3.09521 68.1143 4.37137C68.7751 5.64753 69.1042 7.12694 69.1042 8.81219V10.2427H57.195C57.2383 11.3748 57.6567 12.2933 58.4476 13.0034C59.2385 13.7136 60.208 14.0686 61.3509 14.0686C62.4939 14.0686 63.3741 13.8139 63.9226 13.3045C64.4711 12.795 64.8895 12.229 65.1752 11.6089L68.5735 13.4048C68.2648 13.9811 67.8209 14.6089 67.2367 15.2856C66.6524 15.9623 65.8794 16.5386 64.9099 17.0146C63.943 17.4906 62.7108 17.7299 61.2157 17.7299L61.2183 17.7273ZM57.2256 7.11408H64.8793C64.79 6.15954 64.4124 5.39538 63.7415 4.81905C63.0705 4.24273 62.1954 3.95456 61.1188 3.95456C60.0421 3.95456 59.1058 4.24273 58.4476 4.81905C57.7868 5.39538 57.3812 6.16211 57.2281 7.11408H57.2256Z" fill="#EFEFEF"/>
<path d="M71.1484 17.2617V0.76172H75.2381V2.6245H75.8325C76.0749 1.95812 76.4754 1.47184 77.0367 1.16052C77.598 0.849198 78.2511 0.694824 78.9986 0.694824H80.9784V4.42038H78.9323C77.8761 4.42038 77.0086 4.7034 76.3275 5.26944C75.6463 5.83548 75.3044 6.70512 75.3044 7.88093V17.2617H71.1484Z" fill="#EFEFEF"/>
<path d="M82.5605 17.2616V0.761591H86.6502V2.55747H87.2446C87.5304 2.0043 88.0023 1.5206 88.6631 1.1115C89.3239 0.702414 90.1913 0.496582 91.2679 0.496582C92.4339 0.496582 93.3676 0.722997 94.0718 1.1784C94.7759 1.6338 95.3142 2.22557 95.6892 2.95885H96.2837C96.6562 2.24873 97.1843 1.66211 97.868 1.19641C98.5492 0.730716 99.5161 0.499155 100.771 0.499155C101.782 0.499155 102.7 0.715279 103.527 1.14753C104.351 1.57977 105.011 2.23329 105.506 3.11065C106.001 3.98801 106.249 5.08921 106.249 6.42197V17.2667H102.093V6.72042C102.093 5.81219 101.861 5.13037 101.401 4.67497C100.94 4.21957 100.289 3.99315 99.4549 3.99315C98.5084 3.99315 97.7787 4.29933 97.2608 4.9091C96.7429 5.51888 96.4852 6.38852 96.4852 7.5206V17.2693H92.3293V6.723C92.3293 5.81476 92.0971 5.13295 91.6379 4.67754C91.1761 4.22214 90.5255 3.99572 89.6913 3.99572C88.7448 3.99572 88.0151 4.3019 87.4972 4.91168C86.9793 5.52145 86.7216 6.39109 86.7216 7.52317V17.2719H82.5657L82.5605 17.2616Z" fill="#EFEFEF"/>
<path d="M116.539 17.7273C114.911 17.7273 113.477 17.3774 112.235 16.6801C110.992 15.9803 110.025 14.9949 109.331 13.7187C108.64 12.4426 108.293 10.94 108.293 9.21099V8.81219C108.293 7.08321 108.632 5.58063 109.316 4.30447C109.997 3.02832 110.954 2.0429 112.186 1.34307C113.418 0.645813 114.847 0.295898 116.475 0.295898C118.103 0.295898 119.478 0.656104 120.664 1.37652C121.85 2.09693 122.776 3.09521 123.435 4.37137C124.095 5.64753 124.424 7.12694 124.424 8.81219V10.2427H112.515C112.559 11.3748 112.977 12.2933 113.768 13.0034C114.559 13.7136 115.528 14.0686 116.671 14.0686C117.814 14.0686 118.694 13.8139 119.245 13.3045C119.794 12.795 120.212 12.229 120.498 11.6089L123.896 13.4048C123.588 13.9811 123.144 14.6089 122.56 15.2856C121.975 15.9623 121.202 16.5386 120.233 17.0146C119.266 17.4906 118.034 17.7299 116.539 17.7299V17.7273ZM112.548 7.11408H120.202C120.113 6.15954 119.735 5.39538 119.064 4.81905C118.393 4.24273 117.518 3.95456 116.442 3.95456C115.365 3.95456 114.429 4.24273 113.77 4.81905C113.11 5.39538 112.704 6.16211 112.551 7.11408H112.548Z" fill="#EFEFEF"/>
<path d="M126.467 17.2616V0.761591H130.556V2.55747H131.151C131.437 2.0043 131.909 1.5206 132.569 1.1115C133.23 0.702414 134.098 0.496582 135.174 0.496582C136.34 0.496582 137.274 0.722997 137.978 1.1784C138.682 1.6338 139.22 2.22557 139.595 2.95885H140.19C140.562 2.24873 141.091 1.66211 141.774 1.19641C142.455 0.730716 143.422 0.499155 144.678 0.499155C145.688 0.499155 146.606 0.715279 147.433 1.14753C148.257 1.57977 148.918 2.23329 149.413 3.11065C149.908 3.98801 150.155 5.08921 150.155 6.42197V17.2667H145.999V6.72042C145.999 5.81219 145.767 5.13037 145.308 4.67497C144.846 4.21957 144.195 3.99315 143.361 3.99315C142.415 3.99315 141.685 4.29933 141.167 4.9091C140.649 5.51888 140.391 6.38852 140.391 7.5206V17.2693H136.236V6.723C136.236 5.81476 136.003 5.13295 135.544 4.67754C135.082 4.22214 134.432 3.99572 133.598 3.99572C132.651 3.99572 131.921 4.3019 131.403 4.91168C130.886 5.52145 130.628 6.39109 130.628 7.52317V17.2719H126.472L126.467 17.2616Z" fill="#EFEFEF"/>
<path d="M160.775 17.7273C159.147 17.7273 157.686 17.3954 156.387 16.729C155.088 16.0626 154.065 15.0978 153.318 13.8345C152.57 12.5712 152.195 11.0506 152.195 9.27789V8.7453C152.195 6.97 152.568 5.45199 153.318 4.18869C154.065 2.9254 155.088 1.96056 156.387 1.29418C157.683 0.627803 159.147 0.295898 160.775 0.295898C162.403 0.295898 163.865 0.627803 165.163 1.29418C166.459 1.96056 167.482 2.9254 168.232 4.18869C168.98 5.45199 169.352 6.97257 169.352 8.7453V9.27789C169.352 11.0532 168.977 12.5712 168.232 13.8345C167.485 15.0978 166.462 16.0626 165.163 16.729C163.865 17.3954 162.403 17.7273 160.775 17.7273ZM160.775 14.0017C162.051 14.0017 163.104 13.5849 163.941 12.7539C164.778 11.9228 165.194 10.729 165.194 9.17755V8.84564C165.194 7.29418 164.781 6.10036 163.957 5.26931C163.132 4.43827 162.071 4.02146 160.773 4.02146C159.474 4.02146 158.441 4.43827 157.606 5.26931C156.77 6.10036 156.354 7.29418 156.354 8.84564V9.17755C156.354 10.729 156.77 11.9228 157.606 12.7539C158.443 13.5849 159.497 14.0017 160.773 14.0017H160.775Z" fill="#EFEFEF"/>
<path d="M171.529 17.2617V0.76172H175.619V2.6245H176.213C176.456 1.95812 176.856 1.47184 177.418 1.16052C177.979 0.849198 178.632 0.694824 179.379 0.694824H181.359V4.42038H179.313C178.257 4.42038 177.389 4.7034 176.708 5.26944C176.027 5.83548 175.685 6.70512 175.685 7.88093V17.2617H171.529Z" fill="#EFEFEF"/>
<path d="M184.724 23.9152V20.2566H193.63C194.245 20.2566 194.554 19.9247 194.554 19.2583V15.1005H193.959C193.783 15.4787 193.508 15.8543 193.135 16.2326C192.76 16.6108 192.255 16.9195 191.617 17.1639C190.98 17.4084 190.166 17.5293 189.176 17.5293C187.9 17.5293 186.783 17.236 185.829 16.6468C184.872 16.0602 184.13 15.2446 183.601 14.2025C183.073 13.1605 182.811 11.9615 182.811 10.6108V0.761719H186.967V10.2763C186.967 11.519 187.268 12.4504 187.875 13.0705C188.479 13.6905 189.342 14.0019 190.464 14.0019C191.74 14.0019 192.73 13.5748 193.434 12.7206C194.138 11.8664 194.49 10.6751 194.49 9.14422V0.761719H198.646V20.1897C198.646 21.3218 198.317 22.2248 197.656 22.9015C196.995 23.5782 196.115 23.9152 195.018 23.9152H184.727H184.724Z" fill="#EFEFEF"/>
<path d="M202.135 2.00976H203.556V6.08523H204.729V2.00976H206.15V0.911133H202.135V2.00976Z" fill="#EFEFEF"/>
<path d="M210.062 0.911133L209.261 4.98146L208.462 0.911133H206.523V6.08523H207.669V2.39055L208.399 6.08523H210.126L210.855 2.39055V6.08523H212.001V0.911133H210.062Z" fill="#EFEFEF"/>
</svg>
