<svg xmlns="http://www.w3.org/2000/svg" width="100%" height="100%" style="" viewBox="0 0 14 13" fill="none" preserveAspectRatio="xMidYMid meet" aria-hidden="true" role="img">
<path d="M0 12.5L7 0.5L14 12.5H0ZM7 11.1563C7.265 11.1563 7.49041 11.0625 7.67625 10.875C7.86554 10.684 7.96018 10.4549 7.96018 10.1875C7.96018 9.92014 7.86554 9.69271 7.67625 9.50521C7.49041 9.31424 7.265 9.21875 7 9.21875C6.73501 9.21875 6.50787 9.31424 6.31858 9.50521C6.13274 9.69271 6.03982 9.92014 6.03982 10.1875C6.03982 10.4549 6.13274 10.684 6.31858 10.875C6.50787 11.0625 6.73501 11.1563 7 11.1563ZM6.37021 8.04167H7.62979L7.72271 4.5H6.27729L6.37021 8.04167Z" fill="#FFB900"></path>
</svg>